%FSLAX46Y46*%
G04 Gerber Fmt 4.6, Leading zero omitted, Abs format (unit mm)*
G04 Created by KiCad (PCBNEW (2014-08-21 BZR 5087)-product) date Dom 15 Mar 2015 17:53:44 WET*
%MOMM*%
G01*
G04 APERTURE LIST*
%ADD10C,0.100000*%
%ADD11R,1.727200X1.727200*%
%ADD12O,1.727200X1.727200*%
%ADD13C,1.600000*%
%ADD14C,3.200000*%
%ADD15C,0.889000*%
%ADD16C,0.600000*%
G04 APERTURE END LIST*
D10*
D11*
X161290000Y-97790000D03*
D12*
X163830000Y-97790000D03*
X161290000Y-100330000D03*
X163830000Y-100330000D03*
X161290000Y-102870000D03*
X163830000Y-102870000D03*
X161290000Y-105410000D03*
X163830000Y-105410000D03*
X161290000Y-107950000D03*
X163830000Y-107950000D03*
X161290000Y-110490000D03*
X163830000Y-110490000D03*
D11*
X132080000Y-97790000D03*
D12*
X134620000Y-97790000D03*
X132080000Y-100330000D03*
X134620000Y-100330000D03*
X132080000Y-102870000D03*
X134620000Y-102870000D03*
X132080000Y-105410000D03*
X134620000Y-105410000D03*
X132080000Y-107950000D03*
X134620000Y-107950000D03*
X132080000Y-110490000D03*
X134620000Y-110490000D03*
D13*
X146050000Y-106680000D03*
X146050000Y-109220000D03*
D14*
X139446000Y-108966000D03*
X151892000Y-109093000D03*
D15*
X143888300Y-110734300D03*
X137741400Y-97765000D03*
X145827500Y-94280800D03*
X142182400Y-103600000D03*
X167640000Y-104346000D03*
X139185300Y-97790000D03*
X138453000Y-100242800D03*
D16*
X157042100Y-110734300D02*
X155829000Y-110744000D01*
X155829000Y-110744000D02*
X153797000Y-112522000D01*
X153797000Y-112522000D02*
X148463000Y-112522000D01*
X148463000Y-112522000D02*
X146177000Y-110734300D01*
X146177000Y-110734300D02*
X143888300Y-110734300D01*
X159826400Y-107950000D02*
X157042100Y-110734300D01*
X161290000Y-107950000D02*
X159826400Y-107950000D01*
X136108600Y-97765000D02*
X136083600Y-97790000D01*
X137741400Y-97765000D02*
X136108600Y-97765000D01*
X134620000Y-97790000D02*
X136083600Y-97790000D01*
X134620000Y-100330000D02*
X136083600Y-100330000D01*
X137025200Y-101271600D02*
X136083600Y-100330000D01*
X138836700Y-101271600D02*
X137025200Y-101271600D01*
X145827500Y-94280800D02*
X138836700Y-101271600D01*
X149448300Y-96334100D02*
X142182400Y-103600000D01*
X164410100Y-96334100D02*
X149448300Y-96334100D01*
X165276900Y-97200900D02*
X164410100Y-96334100D01*
X165276900Y-101423100D02*
X165276900Y-97200900D01*
X163830000Y-102870000D02*
X165276900Y-101423100D01*
X167640000Y-97049000D02*
X167640000Y-104346000D01*
X165211000Y-94620000D02*
X167640000Y-97049000D01*
X146967600Y-94620000D02*
X165211000Y-94620000D01*
X136177600Y-105410000D02*
X146967600Y-94620000D01*
X134620000Y-105410000D02*
X136177600Y-105410000D01*
X148554300Y-95479300D02*
X139700000Y-104140000D01*
X164807100Y-95479300D02*
X148554300Y-95479300D01*
X166166900Y-96839100D02*
X164807100Y-95479300D01*
X166166900Y-105613100D02*
X166166900Y-96839100D01*
X163830000Y-107950000D02*
X166166900Y-105613100D01*
X134620000Y-107950000D02*
X135944193Y-107462078D01*
X135944193Y-107462078D02*
X139065000Y-104140000D01*
X139065000Y-104140000D02*
X139700000Y-104140000D01*
X137514900Y-111921300D02*
X136083600Y-110490000D01*
X162398700Y-111921300D02*
X157226000Y-111887000D01*
X157226000Y-111887000D02*
X154178000Y-113538000D01*
X154178000Y-113538000D02*
X147955000Y-113538000D01*
X147955000Y-113538000D02*
X146050000Y-111921300D01*
X146050000Y-111921300D02*
X137514900Y-111921300D01*
X163830000Y-110490000D02*
X162398700Y-111921300D01*
X134620000Y-110490000D02*
X136083600Y-110490000D01*
X137756900Y-96361600D02*
X139185300Y-97790000D01*
X133508400Y-96361600D02*
X137756900Y-96361600D01*
X132080000Y-97790000D02*
X133508400Y-96361600D01*
X140191900Y-98503900D02*
X138453000Y-100242800D01*
X140191900Y-97341100D02*
X140191900Y-98503900D01*
X138340300Y-95489500D02*
X140191900Y-97341100D01*
X131845600Y-95489500D02*
X138340300Y-95489500D01*
X130649100Y-96686000D02*
X131845600Y-95489500D01*
X130649100Y-101439100D02*
X130649100Y-96686000D01*
X132080000Y-102870000D02*
X130649100Y-101439100D01*
X149860000Y-105410000D02*
X161290000Y-105410000D01*
X146050000Y-109220000D02*
X149860000Y-105410000D01*
M02*
