%FSLAX46Y46*%
G04 Gerber Fmt 4.6, Leading zero omitted, Abs format (unit mm)*
G04 Created by KiCad (PCBNEW (2014-08-21 BZR 5087)-product) date Dom 15 Mar 2015 17:53:44 WET*
%MOMM*%
G01*
G04 APERTURE LIST*
%ADD10C,0.100000*%
%ADD11C,0.300000*%
%ADD12C,0.150000*%
%ADD13C,0.381000*%
%ADD14C,0.304800*%
G04 APERTURE END LIST*
D10*
D11*
X129285715Y-113678571D02*
X129285715Y-112178571D01*
X129285715Y-112892857D02*
X130142858Y-112892857D01*
X130142858Y-113678571D02*
X130142858Y-112178571D01*
X131500001Y-113678571D02*
X131500001Y-112892857D01*
X131428572Y-112750000D01*
X131285715Y-112678571D01*
X131000001Y-112678571D01*
X130857144Y-112750000D01*
X131500001Y-113607143D02*
X131357144Y-113678571D01*
X131000001Y-113678571D01*
X130857144Y-113607143D01*
X130785715Y-113464286D01*
X130785715Y-113321429D01*
X130857144Y-113178571D01*
X131000001Y-113107143D01*
X131357144Y-113107143D01*
X131500001Y-113035714D01*
X132857144Y-113607143D02*
X132714287Y-113678571D01*
X132428573Y-113678571D01*
X132285715Y-113607143D01*
X132214287Y-113535714D01*
X132142858Y-113392857D01*
X132142858Y-112964286D01*
X132214287Y-112821429D01*
X132285715Y-112750000D01*
X132428573Y-112678571D01*
X132714287Y-112678571D01*
X132857144Y-112750000D01*
X133500001Y-113678571D02*
X133500001Y-112178571D01*
X133642858Y-113107143D02*
X134071429Y-113678571D01*
X134071429Y-112678571D02*
X133500001Y-113250000D01*
X134642858Y-113250000D02*
X135357144Y-113250000D01*
X134500001Y-113678571D02*
X135000001Y-112178571D01*
X135500001Y-113678571D01*
X135857144Y-112678571D02*
X136214287Y-113678571D01*
X136571429Y-112678571D01*
X137714286Y-113607143D02*
X137571429Y-113678571D01*
X137285715Y-113678571D01*
X137142858Y-113607143D01*
X137071429Y-113464286D01*
X137071429Y-112892857D01*
X137142858Y-112750000D01*
X137285715Y-112678571D01*
X137571429Y-112678571D01*
X137714286Y-112750000D01*
X137785715Y-112892857D01*
X137785715Y-113035714D01*
X137071429Y-113178571D01*
X138428572Y-113678571D02*
X138428572Y-112678571D01*
X138428572Y-112178571D02*
X138357143Y-112250000D01*
X138428572Y-112321429D01*
X138500000Y-112250000D01*
X138428572Y-112178571D01*
X138428572Y-112321429D01*
X139142858Y-113678571D02*
X139142858Y-112678571D01*
X139142858Y-112964286D02*
X139214286Y-112821429D01*
X139285715Y-112750000D01*
X139428572Y-112678571D01*
X139571429Y-112678571D01*
X140285715Y-113678571D02*
X140142857Y-113607143D01*
X140071429Y-113535714D01*
X140000000Y-113392857D01*
X140000000Y-112964286D01*
X140071429Y-112821429D01*
X140142857Y-112750000D01*
X140285715Y-112678571D01*
X140500000Y-112678571D01*
X140642857Y-112750000D01*
X140714286Y-112821429D01*
X140785715Y-112964286D01*
X140785715Y-113392857D01*
X140714286Y-113535714D01*
X140642857Y-113607143D01*
X140500000Y-113678571D01*
X140285715Y-113678571D01*
D12*
X165100000Y-111760000D02*
X165100000Y-96520000D01*
X160020000Y-99060000D02*
X160020000Y-111760000D01*
X165100000Y-111760000D02*
X160020000Y-111760000D01*
X165100000Y-96520000D02*
X162560000Y-96520000D01*
X161290000Y-96240000D02*
X159740000Y-96240000D01*
X162560000Y-96520000D02*
X162560000Y-99060000D01*
X162560000Y-99060000D02*
X160020000Y-99060000D01*
X159740000Y-96240000D02*
X159740000Y-97790000D01*
X135890000Y-111760000D02*
X135890000Y-96520000D01*
X130810000Y-99060000D02*
X130810000Y-111760000D01*
X135890000Y-111760000D02*
X130810000Y-111760000D01*
X135890000Y-96520000D02*
X133350000Y-96520000D01*
X132080000Y-96240000D02*
X130530000Y-96240000D01*
X133350000Y-96520000D02*
X133350000Y-99060000D01*
X133350000Y-99060000D02*
X130810000Y-99060000D01*
X130530000Y-96240000D02*
X130530000Y-97790000D01*
X146050000Y-106680000D02*
X146050000Y-109220000D01*
X147469903Y-106680000D02*
G75*
G03X147469903Y-106680000I-1419903J0D01*
G74*
G01*
D13*
X154940000Y-93980000D02*
X154940000Y-95250000D01*
X154940000Y-95250000D02*
X156210000Y-95250000D01*
X156210000Y-95250000D02*
X156210000Y-93980000D01*
X156210000Y-93980000D02*
X154940000Y-95250000D01*
X154940000Y-95250000D02*
X154940000Y-93980000D01*
X156210000Y-93980000D02*
X156210000Y-95250000D01*
X154940000Y-93980000D02*
X156210000Y-93980000D01*
X154940000Y-95250000D02*
X156210000Y-95250000D01*
X153670000Y-96520000D02*
G75*
G03X146050000Y-96520000I-3810000J-3810000D01*
G74*
G01*
X146050000Y-104140000D02*
G75*
G03X153670000Y-104140000I3810000J3810000D01*
G74*
G01*
D12*
X156880000Y-107075000D02*
X158080000Y-107075000D01*
X158080000Y-108825000D02*
X156880000Y-108825000D01*
X156880000Y-109615000D02*
X158080000Y-109615000D01*
X158080000Y-111365000D02*
X156880000Y-111365000D01*
X167040000Y-96915000D02*
X168240000Y-96915000D01*
X168240000Y-98665000D02*
X167040000Y-98665000D01*
X167040000Y-99455000D02*
X168240000Y-99455000D01*
X168240000Y-101205000D02*
X167040000Y-101205000D01*
X167040000Y-101995000D02*
X168240000Y-101995000D01*
X168240000Y-103745000D02*
X167040000Y-103745000D01*
X167040000Y-104535000D02*
X168240000Y-104535000D01*
X168240000Y-106285000D02*
X167040000Y-106285000D01*
X167040000Y-107075000D02*
X168240000Y-107075000D01*
X168240000Y-108825000D02*
X167040000Y-108825000D01*
X167040000Y-109615000D02*
X168240000Y-109615000D01*
X168240000Y-111365000D02*
X167040000Y-111365000D01*
X157261905Y-94452381D02*
X157261905Y-93452381D01*
X157642858Y-93452381D01*
X157738096Y-93500000D01*
X157785715Y-93547619D01*
X157833334Y-93642857D01*
X157833334Y-93785714D01*
X157785715Y-93880952D01*
X157738096Y-93928571D01*
X157642858Y-93976190D01*
X157261905Y-93976190D01*
X158785715Y-94452381D02*
X158214286Y-94452381D01*
X158500000Y-94452381D02*
X158500000Y-93452381D01*
X158404762Y-93595238D01*
X158309524Y-93690476D01*
X158214286Y-93738095D01*
X137261905Y-95452381D02*
X137261905Y-94452381D01*
X137642858Y-94452381D01*
X137738096Y-94500000D01*
X137785715Y-94547619D01*
X137833334Y-94642857D01*
X137833334Y-94785714D01*
X137785715Y-94880952D01*
X137738096Y-94928571D01*
X137642858Y-94976190D01*
X137261905Y-94976190D01*
X138214286Y-94547619D02*
X138261905Y-94500000D01*
X138357143Y-94452381D01*
X138595239Y-94452381D01*
X138690477Y-94500000D01*
X138738096Y-94547619D01*
X138785715Y-94642857D01*
X138785715Y-94738095D01*
X138738096Y-94880952D01*
X138166667Y-95452381D01*
X138785715Y-95452381D01*
X143962381Y-107100666D02*
X143486190Y-107434000D01*
X143962381Y-107672095D02*
X142962381Y-107672095D01*
X142962381Y-107291142D01*
X143010000Y-107195904D01*
X143057619Y-107148285D01*
X143152857Y-107100666D01*
X143295714Y-107100666D01*
X143390952Y-107148285D01*
X143438571Y-107195904D01*
X143486190Y-107291142D01*
X143486190Y-107672095D01*
X143962381Y-106148285D02*
X143962381Y-106719714D01*
X143962381Y-106434000D02*
X142962381Y-106434000D01*
X143105238Y-106529238D01*
X143200476Y-106624476D01*
X143248095Y-106719714D01*
D14*
X142348857Y-104575429D02*
X142348857Y-105809143D01*
X142421429Y-105954286D01*
X142494000Y-106026857D01*
X142639143Y-106099429D01*
X142929429Y-106099429D01*
X143074571Y-106026857D01*
X143147143Y-105954286D01*
X143219714Y-105809143D01*
X143219714Y-104575429D01*
X144743714Y-106099429D02*
X143872857Y-106099429D01*
X144308285Y-106099429D02*
X144308285Y-104575429D01*
X144163142Y-104793143D01*
X144018000Y-104938286D01*
X143872857Y-105010857D01*
X139736285Y-93145429D02*
X140099142Y-94669429D01*
X140389428Y-93580857D01*
X140679714Y-94669429D01*
X141042571Y-93145429D01*
X141550571Y-94596857D02*
X141768285Y-94669429D01*
X142131142Y-94669429D01*
X142276285Y-94596857D01*
X142348856Y-94524286D01*
X142421428Y-94379143D01*
X142421428Y-94234000D01*
X142348856Y-94088857D01*
X142276285Y-94016286D01*
X142131142Y-93943714D01*
X141840856Y-93871143D01*
X141695714Y-93798571D01*
X141623142Y-93726000D01*
X141550571Y-93580857D01*
X141550571Y-93435714D01*
X141623142Y-93290571D01*
X141695714Y-93218000D01*
X141840856Y-93145429D01*
X142203714Y-93145429D01*
X142421428Y-93218000D01*
X143002000Y-93290571D02*
X143074571Y-93218000D01*
X143219714Y-93145429D01*
X143582571Y-93145429D01*
X143727714Y-93218000D01*
X143800285Y-93290571D01*
X143872857Y-93435714D01*
X143872857Y-93580857D01*
X143800285Y-93798571D01*
X142929428Y-94669429D01*
X143872857Y-94669429D01*
X144743714Y-93798571D02*
X144598572Y-93726000D01*
X144526000Y-93653429D01*
X144453429Y-93508286D01*
X144453429Y-93435714D01*
X144526000Y-93290571D01*
X144598572Y-93218000D01*
X144743714Y-93145429D01*
X145034000Y-93145429D01*
X145179143Y-93218000D01*
X145251714Y-93290571D01*
X145324286Y-93435714D01*
X145324286Y-93508286D01*
X145251714Y-93653429D01*
X145179143Y-93726000D01*
X145034000Y-93798571D01*
X144743714Y-93798571D01*
X144598572Y-93871143D01*
X144526000Y-93943714D01*
X144453429Y-94088857D01*
X144453429Y-94379143D01*
X144526000Y-94524286D01*
X144598572Y-94596857D01*
X144743714Y-94669429D01*
X145034000Y-94669429D01*
X145179143Y-94596857D01*
X145251714Y-94524286D01*
X145324286Y-94379143D01*
X145324286Y-94088857D01*
X145251714Y-93943714D01*
X145179143Y-93871143D01*
X145034000Y-93798571D01*
X146775715Y-94669429D02*
X145904858Y-94669429D01*
X146340286Y-94669429D02*
X146340286Y-93145429D01*
X146195143Y-93363143D01*
X146050001Y-93508286D01*
X145904858Y-93580857D01*
X147356287Y-93290571D02*
X147428858Y-93218000D01*
X147574001Y-93145429D01*
X147936858Y-93145429D01*
X148082001Y-93218000D01*
X148154572Y-93290571D01*
X148227144Y-93435714D01*
X148227144Y-93580857D01*
X148154572Y-93798571D01*
X147283715Y-94669429D01*
X148227144Y-94669429D01*
X149388287Y-93871143D02*
X149606001Y-93943714D01*
X149678573Y-94016286D01*
X149751144Y-94161429D01*
X149751144Y-94379143D01*
X149678573Y-94524286D01*
X149606001Y-94596857D01*
X149460859Y-94669429D01*
X148880287Y-94669429D01*
X148880287Y-93145429D01*
X149388287Y-93145429D01*
X149533430Y-93218000D01*
X149606001Y-93290571D01*
X149678573Y-93435714D01*
X149678573Y-93580857D01*
X149606001Y-93726000D01*
X149533430Y-93798571D01*
X149388287Y-93871143D01*
X148880287Y-93871143D01*
D12*
X157313334Y-110407143D02*
X157265715Y-110454762D01*
X157122858Y-110502381D01*
X157027620Y-110502381D01*
X156884762Y-110454762D01*
X156789524Y-110359524D01*
X156741905Y-110264286D01*
X156694286Y-110073810D01*
X156694286Y-109930952D01*
X156741905Y-109740476D01*
X156789524Y-109645238D01*
X156884762Y-109550000D01*
X157027620Y-109502381D01*
X157122858Y-109502381D01*
X157265715Y-109550000D01*
X157313334Y-109597619D01*
X158265715Y-110502381D02*
X157694286Y-110502381D01*
X157980000Y-110502381D02*
X157980000Y-109502381D01*
X157884762Y-109645238D01*
X157789524Y-109740476D01*
X157694286Y-109788095D01*
X157313334Y-112947143D02*
X157265715Y-112994762D01*
X157122858Y-113042381D01*
X157027620Y-113042381D01*
X156884762Y-112994762D01*
X156789524Y-112899524D01*
X156741905Y-112804286D01*
X156694286Y-112613810D01*
X156694286Y-112470952D01*
X156741905Y-112280476D01*
X156789524Y-112185238D01*
X156884762Y-112090000D01*
X157027620Y-112042381D01*
X157122858Y-112042381D01*
X157265715Y-112090000D01*
X157313334Y-112137619D01*
X157694286Y-112137619D02*
X157741905Y-112090000D01*
X157837143Y-112042381D01*
X158075239Y-112042381D01*
X158170477Y-112090000D01*
X158218096Y-112137619D01*
X158265715Y-112232857D01*
X158265715Y-112328095D01*
X158218096Y-112470952D01*
X157646667Y-113042381D01*
X158265715Y-113042381D01*
X167473334Y-100247143D02*
X167425715Y-100294762D01*
X167282858Y-100342381D01*
X167187620Y-100342381D01*
X167044762Y-100294762D01*
X166949524Y-100199524D01*
X166901905Y-100104286D01*
X166854286Y-99913810D01*
X166854286Y-99770952D01*
X166901905Y-99580476D01*
X166949524Y-99485238D01*
X167044762Y-99390000D01*
X167187620Y-99342381D01*
X167282858Y-99342381D01*
X167425715Y-99390000D01*
X167473334Y-99437619D01*
X167806667Y-99342381D02*
X168425715Y-99342381D01*
X168092381Y-99723333D01*
X168235239Y-99723333D01*
X168330477Y-99770952D01*
X168378096Y-99818571D01*
X168425715Y-99913810D01*
X168425715Y-100151905D01*
X168378096Y-100247143D01*
X168330477Y-100294762D01*
X168235239Y-100342381D01*
X167949524Y-100342381D01*
X167854286Y-100294762D01*
X167806667Y-100247143D01*
X167473334Y-102787143D02*
X167425715Y-102834762D01*
X167282858Y-102882381D01*
X167187620Y-102882381D01*
X167044762Y-102834762D01*
X166949524Y-102739524D01*
X166901905Y-102644286D01*
X166854286Y-102453810D01*
X166854286Y-102310952D01*
X166901905Y-102120476D01*
X166949524Y-102025238D01*
X167044762Y-101930000D01*
X167187620Y-101882381D01*
X167282858Y-101882381D01*
X167425715Y-101930000D01*
X167473334Y-101977619D01*
X168330477Y-102215714D02*
X168330477Y-102882381D01*
X168092381Y-101834762D02*
X167854286Y-102549048D01*
X168473334Y-102549048D01*
X167473334Y-105327143D02*
X167425715Y-105374762D01*
X167282858Y-105422381D01*
X167187620Y-105422381D01*
X167044762Y-105374762D01*
X166949524Y-105279524D01*
X166901905Y-105184286D01*
X166854286Y-104993810D01*
X166854286Y-104850952D01*
X166901905Y-104660476D01*
X166949524Y-104565238D01*
X167044762Y-104470000D01*
X167187620Y-104422381D01*
X167282858Y-104422381D01*
X167425715Y-104470000D01*
X167473334Y-104517619D01*
X168378096Y-104422381D02*
X167901905Y-104422381D01*
X167854286Y-104898571D01*
X167901905Y-104850952D01*
X167997143Y-104803333D01*
X168235239Y-104803333D01*
X168330477Y-104850952D01*
X168378096Y-104898571D01*
X168425715Y-104993810D01*
X168425715Y-105231905D01*
X168378096Y-105327143D01*
X168330477Y-105374762D01*
X168235239Y-105422381D01*
X167997143Y-105422381D01*
X167901905Y-105374762D01*
X167854286Y-105327143D01*
X167473334Y-107867143D02*
X167425715Y-107914762D01*
X167282858Y-107962381D01*
X167187620Y-107962381D01*
X167044762Y-107914762D01*
X166949524Y-107819524D01*
X166901905Y-107724286D01*
X166854286Y-107533810D01*
X166854286Y-107390952D01*
X166901905Y-107200476D01*
X166949524Y-107105238D01*
X167044762Y-107010000D01*
X167187620Y-106962381D01*
X167282858Y-106962381D01*
X167425715Y-107010000D01*
X167473334Y-107057619D01*
X168330477Y-106962381D02*
X168140000Y-106962381D01*
X168044762Y-107010000D01*
X167997143Y-107057619D01*
X167901905Y-107200476D01*
X167854286Y-107390952D01*
X167854286Y-107771905D01*
X167901905Y-107867143D01*
X167949524Y-107914762D01*
X168044762Y-107962381D01*
X168235239Y-107962381D01*
X168330477Y-107914762D01*
X168378096Y-107867143D01*
X168425715Y-107771905D01*
X168425715Y-107533810D01*
X168378096Y-107438571D01*
X168330477Y-107390952D01*
X168235239Y-107343333D01*
X168044762Y-107343333D01*
X167949524Y-107390952D01*
X167901905Y-107438571D01*
X167854286Y-107533810D01*
X167473334Y-110407143D02*
X167425715Y-110454762D01*
X167282858Y-110502381D01*
X167187620Y-110502381D01*
X167044762Y-110454762D01*
X166949524Y-110359524D01*
X166901905Y-110264286D01*
X166854286Y-110073810D01*
X166854286Y-109930952D01*
X166901905Y-109740476D01*
X166949524Y-109645238D01*
X167044762Y-109550000D01*
X167187620Y-109502381D01*
X167282858Y-109502381D01*
X167425715Y-109550000D01*
X167473334Y-109597619D01*
X167806667Y-109502381D02*
X168473334Y-109502381D01*
X168044762Y-110502381D01*
X167473334Y-112947143D02*
X167425715Y-112994762D01*
X167282858Y-113042381D01*
X167187620Y-113042381D01*
X167044762Y-112994762D01*
X166949524Y-112899524D01*
X166901905Y-112804286D01*
X166854286Y-112613810D01*
X166854286Y-112470952D01*
X166901905Y-112280476D01*
X166949524Y-112185238D01*
X167044762Y-112090000D01*
X167187620Y-112042381D01*
X167282858Y-112042381D01*
X167425715Y-112090000D01*
X167473334Y-112137619D01*
X168044762Y-112470952D02*
X167949524Y-112423333D01*
X167901905Y-112375714D01*
X167854286Y-112280476D01*
X167854286Y-112232857D01*
X167901905Y-112137619D01*
X167949524Y-112090000D01*
X168044762Y-112042381D01*
X168235239Y-112042381D01*
X168330477Y-112090000D01*
X168378096Y-112137619D01*
X168425715Y-112232857D01*
X168425715Y-112280476D01*
X168378096Y-112375714D01*
X168330477Y-112423333D01*
X168235239Y-112470952D01*
X168044762Y-112470952D01*
X167949524Y-112518571D01*
X167901905Y-112566190D01*
X167854286Y-112661429D01*
X167854286Y-112851905D01*
X167901905Y-112947143D01*
X167949524Y-112994762D01*
X168044762Y-113042381D01*
X168235239Y-113042381D01*
X168330477Y-112994762D01*
X168378096Y-112947143D01*
X168425715Y-112851905D01*
X168425715Y-112661429D01*
X168378096Y-112566190D01*
X168330477Y-112518571D01*
X168235239Y-112470952D01*
X137803143Y-105417881D02*
X137803143Y-104751214D01*
X137803143Y-104846452D02*
X137850762Y-104798833D01*
X137946000Y-104751214D01*
X138088858Y-104751214D01*
X138184096Y-104798833D01*
X138231715Y-104894071D01*
X138231715Y-105417881D01*
X138231715Y-104894071D02*
X138279334Y-104798833D01*
X138374572Y-104751214D01*
X138517429Y-104751214D01*
X138612667Y-104798833D01*
X138660286Y-104894071D01*
X138660286Y-105417881D01*
X139136476Y-104751214D02*
X139136476Y-105417881D01*
X139136476Y-104846452D02*
X139184095Y-104798833D01*
X139279333Y-104751214D01*
X139422191Y-104751214D01*
X139517429Y-104798833D01*
X139565048Y-104894071D01*
X139565048Y-105417881D01*
X139898381Y-104751214D02*
X140279333Y-104751214D01*
X140041238Y-104417881D02*
X140041238Y-105275024D01*
X140088857Y-105370262D01*
X140184095Y-105417881D01*
X140279333Y-105417881D01*
X141136477Y-105417881D02*
X140565048Y-105417881D01*
X140850762Y-105417881D02*
X140850762Y-104417881D01*
X140755524Y-104560738D01*
X140660286Y-104655976D01*
X140565048Y-104703595D01*
X150249143Y-105544881D02*
X150249143Y-104878214D01*
X150249143Y-104973452D02*
X150296762Y-104925833D01*
X150392000Y-104878214D01*
X150534858Y-104878214D01*
X150630096Y-104925833D01*
X150677715Y-105021071D01*
X150677715Y-105544881D01*
X150677715Y-105021071D02*
X150725334Y-104925833D01*
X150820572Y-104878214D01*
X150963429Y-104878214D01*
X151058667Y-104925833D01*
X151106286Y-105021071D01*
X151106286Y-105544881D01*
X151582476Y-104878214D02*
X151582476Y-105544881D01*
X151582476Y-104973452D02*
X151630095Y-104925833D01*
X151725333Y-104878214D01*
X151868191Y-104878214D01*
X151963429Y-104925833D01*
X152011048Y-105021071D01*
X152011048Y-105544881D01*
X152344381Y-104878214D02*
X152725333Y-104878214D01*
X152487238Y-104544881D02*
X152487238Y-105402024D01*
X152534857Y-105497262D01*
X152630095Y-105544881D01*
X152725333Y-105544881D01*
X153011048Y-104640119D02*
X153058667Y-104592500D01*
X153153905Y-104544881D01*
X153392001Y-104544881D01*
X153487239Y-104592500D01*
X153534858Y-104640119D01*
X153582477Y-104735357D01*
X153582477Y-104830595D01*
X153534858Y-104973452D01*
X152963429Y-105544881D01*
X153582477Y-105544881D01*
M02*
