M48
METRIC,TZ
T1C0.635
T2C0.813
T3C1.016
T4C3.200
%
G90
G05
T1
X137.741Y-97.765
X138.453Y-100.243
X139.185Y-97.79
X142.182Y-103.6
X143.888Y-110.734
X145.827Y-94.281
X167.64Y-104.346
T2
X146.05Y-106.68
X146.05Y-109.22
T3
X132.08Y-97.79
X132.08Y-100.33
X132.08Y-102.87
X132.08Y-105.41
X132.08Y-107.95
X132.08Y-110.49
X134.62Y-97.79
X134.62Y-100.33
X134.62Y-102.87
X134.62Y-105.41
X134.62Y-107.95
X134.62Y-110.49
X161.29Y-97.79
X161.29Y-100.33
X161.29Y-102.87
X161.29Y-105.41
X161.29Y-107.95
X161.29Y-110.49
X163.83Y-97.79
X163.83Y-100.33
X163.83Y-102.87
X163.83Y-105.41
X163.83Y-107.95
X163.83Y-110.49
T4
X139.446Y-108.966
X151.892Y-109.093
T0
M30
