%FSLAX46Y46*%
G04 Gerber Fmt 4.6, Leading zero omitted, Abs format (unit mm)*
G04 Created by KiCad (PCBNEW (2014-08-21 BZR 5087)-product) date Dom 15 Mar 2015 17:53:44 WET*
%MOMM*%
G01*
G04 APERTURE LIST*
%ADD10C,0.100000*%
%ADD11R,1.727200X1.727200*%
%ADD12O,1.727200X1.727200*%
%ADD13C,1.600000*%
%ADD14R,5.999480X1.524000*%
%ADD15R,5.999480X1.300480*%
%ADD16R,0.700000X1.300000*%
%ADD17C,3.200000*%
%ADD18C,0.889000*%
%ADD19C,0.600000*%
G04 APERTURE END LIST*
D10*
D11*
X161290000Y-97790000D03*
D12*
X163830000Y-97790000D03*
X161290000Y-100330000D03*
X163830000Y-100330000D03*
X161290000Y-102870000D03*
X163830000Y-102870000D03*
X161290000Y-105410000D03*
X163830000Y-105410000D03*
X161290000Y-107950000D03*
X163830000Y-107950000D03*
X161290000Y-110490000D03*
X163830000Y-110490000D03*
D11*
X132080000Y-97790000D03*
D12*
X134620000Y-97790000D03*
X132080000Y-100330000D03*
X134620000Y-100330000D03*
X132080000Y-102870000D03*
X134620000Y-102870000D03*
X132080000Y-105410000D03*
X134620000Y-105410000D03*
X132080000Y-107950000D03*
X134620000Y-107950000D03*
X132080000Y-110490000D03*
X134620000Y-110490000D03*
D13*
X146050000Y-106680000D03*
X146050000Y-109220000D03*
D14*
X153670000Y-97790000D03*
X153670000Y-100330000D03*
X153670000Y-102870000D03*
X146050000Y-102870000D03*
X146050000Y-100330000D03*
D15*
X146050000Y-97790000D03*
D16*
X158430000Y-107950000D03*
X156530000Y-107950000D03*
X158430000Y-110490000D03*
X156530000Y-110490000D03*
X168590000Y-97790000D03*
X166690000Y-97790000D03*
X168590000Y-100330000D03*
X166690000Y-100330000D03*
X168590000Y-102870000D03*
X166690000Y-102870000D03*
X168590000Y-105410000D03*
X166690000Y-105410000D03*
X168590000Y-107950000D03*
X166690000Y-107950000D03*
X168590000Y-110490000D03*
X166690000Y-110490000D03*
D17*
X139446000Y-108966000D03*
X151892000Y-109093000D03*
D18*
X143888300Y-110734300D03*
X137741400Y-97765000D03*
X145827500Y-94280800D03*
X142182400Y-103600000D03*
X167640000Y-104346000D03*
X139185300Y-97790000D03*
X138453000Y-100242800D03*
D19*
X158430000Y-107950000D02*
X161290000Y-107950000D01*
X130658700Y-109371300D02*
X132080000Y-107950000D01*
X130658700Y-111085700D02*
X130658700Y-109371300D01*
X132715000Y-113411000D02*
X130658700Y-111085700D01*
X141605000Y-113411000D02*
X132715000Y-113411000D01*
X143888300Y-110734300D02*
X141605000Y-113411000D01*
X168590000Y-102870000D02*
X168590000Y-100330000D01*
X168590000Y-100330000D02*
X168590000Y-97790000D01*
X146963200Y-105766800D02*
X146050000Y-106680000D01*
X154940376Y-105790255D02*
X146963200Y-105766800D01*
X155580000Y-107950000D02*
X154940376Y-105790255D01*
X156530000Y-107950000D02*
X155580000Y-107950000D01*
X156530000Y-110490000D02*
X156768700Y-110490000D01*
X156530000Y-110251300D02*
X156530000Y-107950000D01*
X156768700Y-110490000D02*
X156530000Y-110251300D01*
X156768700Y-110649000D02*
X156768700Y-110490000D01*
X158030400Y-111910700D02*
X156768700Y-110649000D01*
X167106700Y-111910700D02*
X158030400Y-111910700D01*
X168590000Y-110427400D02*
X167106700Y-111910700D01*
X168590000Y-109344200D02*
X168590000Y-110427400D01*
X168590000Y-110490000D02*
X168590000Y-109344200D01*
X168590000Y-109344200D02*
X168590000Y-107950000D01*
X168590000Y-107950000D02*
X168590000Y-105410000D01*
X168641400Y-102921400D02*
X168590000Y-102870000D01*
X168641400Y-105358600D02*
X168641400Y-102921400D01*
X168590000Y-105410000D02*
X168641400Y-105358600D01*
X158430000Y-110490000D02*
X158430000Y-109865000D01*
X158430000Y-109865000D02*
X158430000Y-109240000D01*
X159201400Y-109865000D02*
X159826400Y-110490000D01*
X158430000Y-109865000D02*
X159201400Y-109865000D01*
X161290000Y-110490000D02*
X159826400Y-110490000D01*
X133858000Y-112395000D02*
X132080000Y-110490000D01*
X143002000Y-109855000D02*
X141986000Y-111506000D01*
X141986000Y-111506000D02*
X139954000Y-112522000D01*
X139954000Y-112522000D02*
X133858000Y-112395000D01*
X145851500Y-104851500D02*
X143756889Y-105645236D01*
X143756889Y-105645236D02*
X143819474Y-109436252D01*
X143819474Y-109436252D02*
X143002000Y-109855000D01*
X155291300Y-104851500D02*
X145851500Y-104851500D01*
X157434400Y-106994600D02*
X155291300Y-104851500D01*
X157434400Y-108740400D02*
X157434400Y-106994600D01*
X157934000Y-109240000D02*
X157434400Y-108740400D01*
X158430000Y-109240000D02*
X157934000Y-109240000D01*
X166690000Y-97790000D02*
X163830000Y-97790000D01*
X139158700Y-96347700D02*
X137741400Y-97765000D01*
X162387700Y-96347700D02*
X139158700Y-96347700D01*
X163830000Y-97790000D02*
X162387700Y-96347700D01*
X163830000Y-100330000D02*
X166690000Y-100330000D01*
X164964900Y-94280800D02*
X145827500Y-94280800D01*
X167640000Y-96955900D02*
X164964900Y-94280800D01*
X167640000Y-100330000D02*
X167640000Y-96955900D01*
X166690000Y-100330000D02*
X167640000Y-100330000D01*
X166690000Y-102870000D02*
X163830000Y-102870000D01*
X136813600Y-103600000D02*
X136083600Y-102870000D01*
X142182400Y-103600000D02*
X136813600Y-103600000D01*
X134620000Y-102870000D02*
X136083600Y-102870000D01*
X163830000Y-105410000D02*
X166690000Y-105410000D01*
X166690000Y-105410000D02*
X167640000Y-105410000D01*
X167640000Y-105410000D02*
X167640000Y-104346000D01*
X166690000Y-107950000D02*
X163830000Y-107950000D01*
X166690000Y-110490000D02*
X163830000Y-110490000D01*
X144879000Y-99159000D02*
X146050000Y-100330000D01*
X137648400Y-99159000D02*
X144879000Y-99159000D01*
X136742600Y-98253200D02*
X137648400Y-99159000D01*
X136742600Y-97872000D02*
X136742600Y-98253200D01*
X135209300Y-96338700D02*
X136742600Y-97872000D01*
X131005500Y-96338700D02*
X135209300Y-96338700D01*
X130662000Y-96682200D02*
X131005500Y-96338700D01*
X130662000Y-98912000D02*
X130662000Y-96682200D01*
X132080000Y-100330000D02*
X130662000Y-98912000D01*
X146050000Y-97790000D02*
X153670000Y-97790000D01*
X153670000Y-97790000D02*
X161290000Y-97790000D01*
X146050000Y-97790000D02*
X142450300Y-97790000D01*
X142450300Y-97790000D02*
X139185300Y-97790000D01*
X153670000Y-100330000D02*
X161290000Y-100330000D01*
X153670000Y-102870000D02*
X161290000Y-102870000D01*
X153670000Y-102870000D02*
X146050000Y-102870000D01*
X138453000Y-100242900D02*
X138453000Y-100242800D01*
X141417400Y-100242900D02*
X138453000Y-100242900D01*
X144044500Y-102870000D02*
X141417400Y-100242900D01*
X146050000Y-102870000D02*
X144044500Y-102870000D01*
X146050000Y-109985200D02*
X146050000Y-109220000D01*
X141986000Y-114427000D02*
X146050000Y-109985200D01*
X132207000Y-114427000D02*
X141986000Y-114427000D01*
X129804400Y-111439600D02*
X132207000Y-114427000D01*
X129804400Y-107685600D02*
X129804400Y-111439600D01*
X132080000Y-105410000D02*
X129804400Y-107685600D01*
M02*
