<?xml version="1.0" standalone="no"?>
 <!DOCTYPE svg PUBLIC "-//W3C//DTD SVG 1.1//EN" 
 "http://www.w3.org/Graphics/SVG/1.1/DTD/svg11.dtd"> 
<svg xmlns="http://www.w3.org/2000/svg" version="1.1" 
    width="29.7002cm" height="21.0007cm" viewBox="0 0 116930 82680 ">
<title>SVG Picture created as board-F_SilkS.svg date 2015/03/20 22:59:12 </title>
  <desc>Picture generated by PCBNEW </desc>
<g style="fill:#000000; fill-opacity:1;stroke:#000000; stroke-opacity:1;
stroke-linecap:round; stroke-linejoin:round; "
 transform="translate(0 0) scale(1 1)">
</g>
<g style="fill:#000000; fill-opacity:0.0; 
stroke:#000000; stroke-width:39.3701; stroke-opacity:1; 
stroke-linecap:round; stroke-linejoin:round;">
</g>
<g style="fill:#000000; fill-opacity:0.0; 
stroke:#000000; stroke-width:59.0551; stroke-opacity:1; 
stroke-linecap:round; stroke-linejoin:round;">
<rect x="69685.9" y="65357.2" width="42519.7" height="12598.4" rx="0" />
</g>
<g style="fill:#000000; fill-opacity:0.0; 
stroke:#000000; stroke-width:39.3701; stroke-opacity:1; 
stroke-linecap:round; stroke-linejoin:round;">
</g>
<g style="fill:#000000; fill-opacity:0.0; 
stroke:#000000; stroke-width:59.0551; stroke-opacity:1; 
stroke-linecap:round; stroke-linejoin:round;">
<rect x="3937.01" y="3937.01" width="109056" height="74806" rx="0" />
</g>
<g style="fill:#000000; fill-opacity:0.0; 
stroke:#000000; stroke-width:39.3701; stroke-opacity:1; 
stroke-linecap:round; stroke-linejoin:round;">
</g>
<g style="fill:#000000; fill-opacity:0.0; 
stroke:#000000; stroke-width:59.0551; stroke-opacity:1; 
stroke-linecap:round; stroke-linejoin:round;">
<rect x="4724.41" y="4724.41" width="107481" height="73231.2" rx="0" />
</g>
<g style="fill:#000000; fill-opacity:0.0; 
stroke:#000000; stroke-width:39.3701; stroke-opacity:1; 
stroke-linecap:round; stroke-linejoin:round;">
</g>
<g style="fill:#000000; fill-opacity:0.0; 
stroke:#000000; stroke-width:59.0551; stroke-opacity:1; 
stroke-linecap:round; stroke-linejoin:round;">
<path d="M23622 4724
L23622 3937
" />
</g>
<g style="fill:#000000; fill-opacity:0.0; 
stroke:#000000; stroke-width:39.3701; stroke-opacity:1; 
stroke-linecap:round; stroke-linejoin:round;">
</g>
<g style="fill:#000000; fill-opacity:0.0; 
stroke:#000000; stroke-width:59.0551; stroke-opacity:1; 
stroke-linecap:round; stroke-linejoin:round;">
<path d="M43307 4724
L43307 3937
" />
</g>
<g style="fill:#000000; fill-opacity:0.0; 
stroke:#000000; stroke-width:39.3701; stroke-opacity:1; 
stroke-linecap:round; stroke-linejoin:round;">
</g>
<g style="fill:#000000; fill-opacity:0.0; 
stroke:#000000; stroke-width:59.0551; stroke-opacity:1; 
stroke-linecap:round; stroke-linejoin:round;">
<path d="M62992 4724
L62992 3937
" />
</g>
<g style="fill:#000000; fill-opacity:0.0; 
stroke:#000000; stroke-width:39.3701; stroke-opacity:1; 
stroke-linecap:round; stroke-linejoin:round;">
</g>
<g style="fill:#000000; fill-opacity:0.0; 
stroke:#000000; stroke-width:59.0551; stroke-opacity:1; 
stroke-linecap:round; stroke-linejoin:round;">
<path d="M82677 4724
L82677 3937
" />
</g>
<g style="fill:#000000; fill-opacity:0.0; 
stroke:#000000; stroke-width:39.3701; stroke-opacity:1; 
stroke-linecap:round; stroke-linejoin:round;">
</g>
<g style="fill:#000000; fill-opacity:0.0; 
stroke:#000000; stroke-width:59.0551; stroke-opacity:1; 
stroke-linecap:round; stroke-linejoin:round;">
<path d="M102362 4724
L102362 3937
" />
</g>
<g style="fill:#000000; fill-opacity:0.0; 
stroke:#000000; stroke-width:39.3701; stroke-opacity:1; 
stroke-linecap:round; stroke-linejoin:round;">
</g>
<g style="fill:#000000; fill-opacity:0.0; 
stroke:#000000; stroke-width:59.0551; stroke-opacity:1; 
stroke-linecap:round; stroke-linejoin:round;">
<path d="M14169 4562
L13877 4562
" />
<path d="M14023 4562
L14023 4050
L13974 4123
L13925 4172
L13877 4196
" />
</g>
<g style="fill:#000000; fill-opacity:0.0; 
stroke:#000000; stroke-width:39.3701; stroke-opacity:1; 
stroke-linecap:round; stroke-linejoin:round;">
</g>
<g style="fill:#000000; fill-opacity:0.0; 
stroke:#000000; stroke-width:59.0551; stroke-opacity:1; 
stroke-linecap:round; stroke-linejoin:round;">
<path d="M33562 4099
L33586 4074
L33635 4050
L33757 4050
L33805 4074
L33830 4099
L33854 4147
L33854 4196
L33830 4269
L33537 4562
L33854 4562
" />
</g>
<g style="fill:#000000; fill-opacity:0.0; 
stroke:#000000; stroke-width:39.3701; stroke-opacity:1; 
stroke-linecap:round; stroke-linejoin:round;">
</g>
<g style="fill:#000000; fill-opacity:0.0; 
stroke:#000000; stroke-width:59.0551; stroke-opacity:1; 
stroke-linecap:round; stroke-linejoin:round;">
<path d="M53222 4050
L53539 4050
L53368 4245
L53442 4245
L53490 4269
L53515 4294
L53539 4342
L53539 4464
L53515 4513
L53490 4537
L53442 4562
L53295 4562
L53247 4537
L53222 4513
" />
</g>
<g style="fill:#000000; fill-opacity:0.0; 
stroke:#000000; stroke-width:39.3701; stroke-opacity:1; 
stroke-linecap:round; stroke-linejoin:round;">
</g>
<g style="fill:#000000; fill-opacity:0.0; 
stroke:#000000; stroke-width:59.0551; stroke-opacity:1; 
stroke-linecap:round; stroke-linejoin:round;">
<path d="M73175 4221
L73175 4562
" />
<path d="M73053 4026
L72932 4391
L73248 4391
" />
</g>
<g style="fill:#000000; fill-opacity:0.0; 
stroke:#000000; stroke-width:39.3701; stroke-opacity:1; 
stroke-linecap:round; stroke-linejoin:round;">
</g>
<g style="fill:#000000; fill-opacity:0.0; 
stroke:#000000; stroke-width:59.0551; stroke-opacity:1; 
stroke-linecap:round; stroke-linejoin:round;">
<path d="M92885 4050
L92641 4050
L92617 4294
L92641 4269
L92690 4245
L92812 4245
L92860 4269
L92885 4294
L92909 4342
L92909 4464
L92885 4513
L92860 4537
L92812 4562
L92690 4562
L92641 4537
L92617 4513
" />
</g>
<g style="fill:#000000; fill-opacity:0.0; 
stroke:#000000; stroke-width:39.3701; stroke-opacity:1; 
stroke-linecap:round; stroke-linejoin:round;">
</g>
<g style="fill:#000000; fill-opacity:0.0; 
stroke:#000000; stroke-width:59.0551; stroke-opacity:1; 
stroke-linecap:round; stroke-linejoin:round;">
<path d="M112545 4050
L112448 4050
L112399 4074
L112375 4099
L112326 4172
L112302 4269
L112302 4464
L112326 4513
L112350 4537
L112399 4562
L112497 4562
L112545 4537
L112570 4513
L112594 4464
L112594 4342
L112570 4294
L112545 4269
L112497 4245
L112399 4245
L112350 4269
L112326 4294
L112302 4342
" />
</g>
<g style="fill:#000000; fill-opacity:0.0; 
stroke:#000000; stroke-width:39.3701; stroke-opacity:1; 
stroke-linecap:round; stroke-linejoin:round;">
</g>
<g style="fill:#000000; fill-opacity:0.0; 
stroke:#000000; stroke-width:59.0551; stroke-opacity:1; 
stroke-linecap:round; stroke-linejoin:round;">
<path d="M23622 77955
L23622 78742
" />
</g>
<g style="fill:#000000; fill-opacity:0.0; 
stroke:#000000; stroke-width:39.3701; stroke-opacity:1; 
stroke-linecap:round; stroke-linejoin:round;">
</g>
<g style="fill:#000000; fill-opacity:0.0; 
stroke:#000000; stroke-width:59.0551; stroke-opacity:1; 
stroke-linecap:round; stroke-linejoin:round;">
<path d="M43307 77955
L43307 78742
" />
</g>
<g style="fill:#000000; fill-opacity:0.0; 
stroke:#000000; stroke-width:39.3701; stroke-opacity:1; 
stroke-linecap:round; stroke-linejoin:round;">
</g>
<g style="fill:#000000; fill-opacity:0.0; 
stroke:#000000; stroke-width:59.0551; stroke-opacity:1; 
stroke-linecap:round; stroke-linejoin:round;">
<path d="M62992 77955
L62992 78742
" />
</g>
<g style="fill:#000000; fill-opacity:0.0; 
stroke:#000000; stroke-width:39.3701; stroke-opacity:1; 
stroke-linecap:round; stroke-linejoin:round;">
</g>
<g style="fill:#000000; fill-opacity:0.0; 
stroke:#000000; stroke-width:59.0551; stroke-opacity:1; 
stroke-linecap:round; stroke-linejoin:round;">
<path d="M82677 77955
L82677 78742
" />
</g>
<g style="fill:#000000; fill-opacity:0.0; 
stroke:#000000; stroke-width:39.3701; stroke-opacity:1; 
stroke-linecap:round; stroke-linejoin:round;">
</g>
<g style="fill:#000000; fill-opacity:0.0; 
stroke:#000000; stroke-width:59.0551; stroke-opacity:1; 
stroke-linecap:round; stroke-linejoin:round;">
<path d="M102362 77955
L102362 78742
" />
</g>
<g style="fill:#000000; fill-opacity:0.0; 
stroke:#000000; stroke-width:39.3701; stroke-opacity:1; 
stroke-linecap:round; stroke-linejoin:round;">
</g>
<g style="fill:#000000; fill-opacity:0.0; 
stroke:#000000; stroke-width:59.0551; stroke-opacity:1; 
stroke-linecap:round; stroke-linejoin:round;">
<path d="M14169 78580
L13877 78580
" />
<path d="M14023 78580
L14023 78069
L13974 78142
L13925 78190
L13877 78215
" />
</g>
<g style="fill:#000000; fill-opacity:0.0; 
stroke:#000000; stroke-width:39.3701; stroke-opacity:1; 
stroke-linecap:round; stroke-linejoin:round;">
</g>
<g style="fill:#000000; fill-opacity:0.0; 
stroke:#000000; stroke-width:59.0551; stroke-opacity:1; 
stroke-linecap:round; stroke-linejoin:round;">
<path d="M33562 78117
L33586 78093
L33635 78069
L33757 78069
L33805 78093
L33830 78117
L33854 78166
L33854 78215
L33830 78288
L33537 78580
L33854 78580
" />
</g>
<g style="fill:#000000; fill-opacity:0.0; 
stroke:#000000; stroke-width:39.3701; stroke-opacity:1; 
stroke-linecap:round; stroke-linejoin:round;">
</g>
<g style="fill:#000000; fill-opacity:0.0; 
stroke:#000000; stroke-width:59.0551; stroke-opacity:1; 
stroke-linecap:round; stroke-linejoin:round;">
<path d="M53222 78069
L53539 78069
L53368 78263
L53442 78263
L53490 78288
L53515 78312
L53539 78361
L53539 78483
L53515 78532
L53490 78556
L53442 78580
L53295 78580
L53247 78556
L53222 78532
" />
</g>
<g style="fill:#000000; fill-opacity:0.0; 
stroke:#000000; stroke-width:39.3701; stroke-opacity:1; 
stroke-linecap:round; stroke-linejoin:round;">
</g>
<g style="fill:#000000; fill-opacity:0.0; 
stroke:#000000; stroke-width:59.0551; stroke-opacity:1; 
stroke-linecap:round; stroke-linejoin:round;">
<path d="M73175 78239
L73175 78580
" />
<path d="M73053 78044
L72932 78410
L73248 78410
" />
</g>
<g style="fill:#000000; fill-opacity:0.0; 
stroke:#000000; stroke-width:39.3701; stroke-opacity:1; 
stroke-linecap:round; stroke-linejoin:round;">
</g>
<g style="fill:#000000; fill-opacity:0.0; 
stroke:#000000; stroke-width:59.0551; stroke-opacity:1; 
stroke-linecap:round; stroke-linejoin:round;">
<path d="M92885 78069
L92641 78069
L92617 78312
L92641 78288
L92690 78263
L92812 78263
L92860 78288
L92885 78312
L92909 78361
L92909 78483
L92885 78532
L92860 78556
L92812 78580
L92690 78580
L92641 78556
L92617 78532
" />
</g>
<g style="fill:#000000; fill-opacity:0.0; 
stroke:#000000; stroke-width:39.3701; stroke-opacity:1; 
stroke-linecap:round; stroke-linejoin:round;">
</g>
<g style="fill:#000000; fill-opacity:0.0; 
stroke:#000000; stroke-width:59.0551; stroke-opacity:1; 
stroke-linecap:round; stroke-linejoin:round;">
<path d="M112545 78069
L112448 78069
L112399 78093
L112375 78117
L112326 78190
L112302 78288
L112302 78483
L112326 78532
L112350 78556
L112399 78580
L112497 78580
L112545 78556
L112570 78532
L112594 78483
L112594 78361
L112570 78312
L112545 78288
L112497 78263
L112399 78263
L112350 78288
L112326 78312
L112302 78361
" />
</g>
<g style="fill:#000000; fill-opacity:0.0; 
stroke:#000000; stroke-width:39.3701; stroke-opacity:1; 
stroke-linecap:round; stroke-linejoin:round;">
</g>
<g style="fill:#000000; fill-opacity:0.0; 
stroke:#000000; stroke-width:59.0551; stroke-opacity:1; 
stroke-linecap:round; stroke-linejoin:round;">
<path d="M3937 23622
L4724 23622
" />
</g>
<g style="fill:#000000; fill-opacity:0.0; 
stroke:#000000; stroke-width:39.3701; stroke-opacity:1; 
stroke-linecap:round; stroke-linejoin:round;">
</g>
<g style="fill:#000000; fill-opacity:0.0; 
stroke:#000000; stroke-width:59.0551; stroke-opacity:1; 
stroke-linecap:round; stroke-linejoin:round;">
<path d="M3937 43307
L4724 43307
" />
</g>
<g style="fill:#000000; fill-opacity:0.0; 
stroke:#000000; stroke-width:39.3701; stroke-opacity:1; 
stroke-linecap:round; stroke-linejoin:round;">
</g>
<g style="fill:#000000; fill-opacity:0.0; 
stroke:#000000; stroke-width:59.0551; stroke-opacity:1; 
stroke-linecap:round; stroke-linejoin:round;">
<path d="M3937 62992
L4724 62992
" />
</g>
<g style="fill:#000000; fill-opacity:0.0; 
stroke:#000000; stroke-width:39.3701; stroke-opacity:1; 
stroke-linecap:round; stroke-linejoin:round;">
</g>
<g style="fill:#000000; fill-opacity:0.0; 
stroke:#000000; stroke-width:59.0551; stroke-opacity:1; 
stroke-linecap:round; stroke-linejoin:round;">
<path d="M4208 13864
L4452 13864
" />
<path d="M4160 14011
L4330 13499
L4501 14011
" />
</g>
<g style="fill:#000000; fill-opacity:0.0; 
stroke:#000000; stroke-width:39.3701; stroke-opacity:1; 
stroke-linecap:round; stroke-linejoin:round;">
</g>
<g style="fill:#000000; fill-opacity:0.0; 
stroke:#000000; stroke-width:59.0551; stroke-opacity:1; 
stroke-linecap:round; stroke-linejoin:round;">
<path d="M4367 33428
L4440 33452
L4464 33476
L4489 33525
L4489 33598
L4464 33647
L4440 33671
L4391 33696
L4196 33696
L4196 33184
L4367 33184
L4416 33208
L4440 33233
L4464 33281
L4464 33330
L4440 33379
L4416 33403
L4367 33428
L4196 33428
" />
</g>
<g style="fill:#000000; fill-opacity:0.0; 
stroke:#000000; stroke-width:39.3701; stroke-opacity:1; 
stroke-linecap:round; stroke-linejoin:round;">
</g>
<g style="fill:#000000; fill-opacity:0.0; 
stroke:#000000; stroke-width:59.0551; stroke-opacity:1; 
stroke-linecap:round; stroke-linejoin:round;">
<path d="M4489 53332
L4464 53356
L4391 53381
L4342 53381
L4269 53356
L4221 53308
L4196 53259
L4172 53161
L4172 53088
L4196 52991
L4221 52942
L4269 52893
L4342 52869
L4391 52869
L4464 52893
L4489 52918
" />
</g>
<g style="fill:#000000; fill-opacity:0.0; 
stroke:#000000; stroke-width:39.3701; stroke-opacity:1; 
stroke-linecap:round; stroke-linejoin:round;">
</g>
<g style="fill:#000000; fill-opacity:0.0; 
stroke:#000000; stroke-width:59.0551; stroke-opacity:1; 
stroke-linecap:round; stroke-linejoin:round;">
<path d="M4196 73066
L4196 72554
L4318 72554
L4391 72578
L4440 72627
L4464 72676
L4489 72773
L4489 72846
L4464 72944
L4440 72993
L4391 73041
L4318 73066
L4196 73066
" />
</g>
<g style="fill:#000000; fill-opacity:0.0; 
stroke:#000000; stroke-width:39.3701; stroke-opacity:1; 
stroke-linecap:round; stroke-linejoin:round;">
</g>
<g style="fill:#000000; fill-opacity:0.0; 
stroke:#000000; stroke-width:59.0551; stroke-opacity:1; 
stroke-linecap:round; stroke-linejoin:round;">
<path d="M112992 23622
L112205 23622
" />
</g>
<g style="fill:#000000; fill-opacity:0.0; 
stroke:#000000; stroke-width:39.3701; stroke-opacity:1; 
stroke-linecap:round; stroke-linejoin:round;">
</g>
<g style="fill:#000000; fill-opacity:0.0; 
stroke:#000000; stroke-width:59.0551; stroke-opacity:1; 
stroke-linecap:round; stroke-linejoin:round;">
<path d="M112992 43307
L112205 43307
" />
</g>
<g style="fill:#000000; fill-opacity:0.0; 
stroke:#000000; stroke-width:39.3701; stroke-opacity:1; 
stroke-linecap:round; stroke-linejoin:round;">
</g>
<g style="fill:#000000; fill-opacity:0.0; 
stroke:#000000; stroke-width:59.0551; stroke-opacity:1; 
stroke-linecap:round; stroke-linejoin:round;">
<path d="M112992 62992
L112205 62992
" />
</g>
<g style="fill:#000000; fill-opacity:0.0; 
stroke:#000000; stroke-width:39.3701; stroke-opacity:1; 
stroke-linecap:round; stroke-linejoin:round;">
</g>
<g style="fill:#000000; fill-opacity:0.0; 
stroke:#000000; stroke-width:59.0551; stroke-opacity:1; 
stroke-linecap:round; stroke-linejoin:round;">
<path d="M112477 13864
L112721 13864
" />
<path d="M112428 14011
L112599 13499
L112769 14011
" />
</g>
<g style="fill:#000000; fill-opacity:0.0; 
stroke:#000000; stroke-width:39.3701; stroke-opacity:1; 
stroke-linecap:round; stroke-linejoin:round;">
</g>
<g style="fill:#000000; fill-opacity:0.0; 
stroke:#000000; stroke-width:59.0551; stroke-opacity:1; 
stroke-linecap:round; stroke-linejoin:round;">
<path d="M112635 33428
L112708 33452
L112733 33476
L112757 33525
L112757 33598
L112733 33647
L112708 33671
L112660 33696
L112465 33696
L112465 33184
L112635 33184
L112684 33208
L112708 33233
L112733 33281
L112733 33330
L112708 33379
L112684 33403
L112635 33428
L112465 33428
" />
</g>
<g style="fill:#000000; fill-opacity:0.0; 
stroke:#000000; stroke-width:39.3701; stroke-opacity:1; 
stroke-linecap:round; stroke-linejoin:round;">
</g>
<g style="fill:#000000; fill-opacity:0.0; 
stroke:#000000; stroke-width:59.0551; stroke-opacity:1; 
stroke-linecap:round; stroke-linejoin:round;">
<path d="M112757 53332
L112733 53356
L112660 53381
L112611 53381
L112538 53356
L112489 53308
L112465 53259
L112440 53161
L112440 53088
L112465 52991
L112489 52942
L112538 52893
L112611 52869
L112660 52869
L112733 52893
L112757 52918
" />
</g>
<g style="fill:#000000; fill-opacity:0.0; 
stroke:#000000; stroke-width:39.3701; stroke-opacity:1; 
stroke-linecap:round; stroke-linejoin:round;">
</g>
<g style="fill:#000000; fill-opacity:0.0; 
stroke:#000000; stroke-width:59.0551; stroke-opacity:1; 
stroke-linecap:round; stroke-linejoin:round;">
<path d="M112465 73066
L112465 72554
L112587 72554
L112660 72578
L112708 72627
L112733 72676
L112757 72773
L112757 72846
L112733 72944
L112708 72993
L112660 73041
L112587 73066
L112465 73066
" />
</g>
<g style="fill:#000000; fill-opacity:0.0; 
stroke:#000000; stroke-width:39.3701; stroke-opacity:1; 
stroke-linecap:round; stroke-linejoin:round;">
</g>
<g style="fill:#000000; fill-opacity:0.0; 
stroke:#000000; stroke-width:59.0551; stroke-opacity:1; 
stroke-linecap:round; stroke-linejoin:round;">
<path d="M78881 76293
L78881 75703
L79022 75703
L79106 75731
L79162 75787
L79190 75843
L79219 75956
L79219 76040
L79190 76153
L79162 76209
L79106 76265
L79022 76293
L78881 76293
" />
<path d="M79725 76293
L79725 75984
L79697 75928
L79640 75899
L79528 75899
L79472 75928
" />
<path d="M79725 76265
L79669 76293
L79528 76293
L79472 76265
L79444 76209
L79444 76153
L79472 76096
L79528 76068
L79669 76068
L79725 76040
" />
<path d="M79922 75899
L80147 75899
" />
<path d="M80006 75703
L80006 76209
L80034 76265
L80090 76293
L80147 76293
" />
<path d="M80568 76265
L80512 76293
L80400 76293
L80343 76265
L80315 76209
L80315 75984
L80343 75928
L80400 75899
L80512 75899
L80568 75928
L80597 75984
L80597 76040
L80315 76096
" />
<path d="M80850 76237
L80878 76265
L80850 76293
L80822 76265
L80850 76237
L80850 76293
" />
<path d="M80850 75928
L80878 75956
L80850 75984
L80822 75956
L80850 75928
L80850 75984
" />
</g>
<g style="fill:#000000; fill-opacity:0.0; 
stroke:#000000; stroke-width:39.3701; stroke-opacity:1; 
stroke-linecap:round; stroke-linejoin:round;">
</g>
<g style="fill:#000000; fill-opacity:0.0; 
stroke:#000000; stroke-width:59.0551; stroke-opacity:1; 
stroke-linecap:round; stroke-linejoin:round;">
<path d="M69685 76577
L112205 76577
" />
</g>
<g style="fill:#000000; fill-opacity:0.0; 
stroke:#000000; stroke-width:39.3701; stroke-opacity:1; 
stroke-linecap:round; stroke-linejoin:round;">
</g>
<g style="fill:#000000; fill-opacity:0.0; 
stroke:#000000; stroke-width:59.0551; stroke-opacity:1; 
stroke-linecap:round; stroke-linejoin:round;">
<path d="M70220 77395
L70220 76805
" />
<path d="M70557 77395
L70304 77058
" />
<path d="M70557 76805
L70220 77142
" />
<path d="M70810 77395
L70810 77002
" />
<path d="M70810 76805
L70782 76833
L70810 76861
L70838 76833
L70810 76805
L70810 76861
" />
<path d="M71429 77339
L71401 77367
L71316 77395
L71260 77395
L71176 77367
L71120 77311
L71091 77255
L71063 77142
L71063 77058
L71091 76946
L71120 76889
L71176 76833
L71260 76805
L71316 76805
L71401 76833
L71429 76861
" />
<path d="M71935 77395
L71935 77086
L71907 77030
L71851 77002
L71738 77002
L71682 77030
" />
<path d="M71935 77367
L71879 77395
L71738 77395
L71682 77367
L71654 77311
L71654 77255
L71682 77199
L71738 77171
L71879 77171
L71935 77142
" />
<path d="M72469 77395
L72469 76805
" />
<path d="M72469 77367
L72413 77395
L72301 77395
L72244 77367
L72216 77339
L72188 77283
L72188 77114
L72216 77058
L72244 77030
L72301 77002
L72413 77002
L72469 77030
" />
<path d="M73201 77086
L73397 77086
" />
<path d="M73482 77395
L73201 77395
L73201 76805
L73482 76805
" />
<path d="M73735 77339
L73763 77367
L73735 77395
L73707 77367
L73735 77339
L73735 77395
" />
<path d="M74016 77395
L74016 76805
L74157 76805
L74241 76833
L74297 76889
L74325 76946
L74354 77058
L74354 77142
L74325 77255
L74297 77311
L74241 77367
L74157 77395
L74016 77395
" />
<path d="M74607 77339
L74635 77367
L74607 77395
L74579 77367
L74607 77339
L74607 77395
" />
<path d="M74860 77227
L75141 77227
" />
<path d="M74804 77395
L75000 76805
L75197 77395
" />
<path d="M75394 77339
L75422 77367
L75394 77395
L75366 77367
L75394 77339
L75394 77395
" />
<path d="M76575 77395
L76575 76805
" />
<path d="M76631 77171
L76800 77395
" />
<path d="M76800 77002
L76575 77227
" />
<path d="M77053 77395
L77053 77002
" />
<path d="M77053 76805
L77025 76833
L77053 76861
L77081 76833
L77053 76805
L77053 76861
" />
<path d="M77588 77367
L77531 77395
L77419 77395
L77363 77367
L77334 77339
L77306 77283
L77306 77114
L77334 77058
L77363 77030
L77419 77002
L77531 77002
L77588 77030
" />
<path d="M78094 77395
L78094 77086
L78066 77030
L78009 77002
L77897 77002
L77841 77030
" />
<path d="M78094 77367
L78037 77395
L77897 77395
L77841 77367
L77813 77311
L77813 77255
L77841 77199
L77897 77171
L78037 77171
L78094 77142
" />
<path d="M78628 77395
L78628 76805
" />
<path d="M78628 77367
L78572 77395
L78459 77395
L78403 77367
L78375 77339
L78347 77283
L78347 77114
L78375 77058
L78403 77030
L78459 77002
L78572 77002
L78628 77030
" />
<path d="M79528 77620
L79500 77592
L79444 77508
L79415 77452
L79387 77367
L79359 77227
L79359 77114
L79387 76974
L79415 76889
L79444 76833
L79500 76749
L79528 76721
" />
<path d="M79725 76861
L79753 76833
L79809 76805
L79950 76805
L80006 76833
L80034 76861
L80062 76917
L80062 76974
L80034 77058
L79697 77395
L80062 77395
" />
<path d="M80428 76805
L80484 76805
L80540 76833
L80568 76861
L80597 76917
L80625 77030
L80625 77171
L80597 77283
L80568 77339
L80540 77367
L80484 77395
L80428 77395
L80372 77367
L80343 77339
L80315 77283
L80287 77171
L80287 77030
L80315 76917
L80343 76861
L80372 76833
L80428 76805
" />
<path d="M81187 77395
L80850 77395
" />
<path d="M81018 77395
L81018 76805
L80962 76889
L80906 76946
L80850 76974
" />
<path d="M81693 77002
L81693 77395
" />
<path d="M81553 76777
L81412 77199
L81778 77199
" />
<path d="M82003 77171
L82453 77171
" />
<path d="M82846 76805
L82903 76805
L82959 76833
L82987 76861
L83015 76917
L83043 77030
L83043 77171
L83015 77283
L82987 77339
L82959 77367
L82903 77395
L82846 77395
L82790 77367
L82762 77339
L82734 77283
L82706 77171
L82706 77030
L82734 76917
L82762 76861
L82790 76833
L82846 76805
" />
<path d="M83381 77058
L83324 77030
L83296 77002
L83268 76946
L83268 76917
L83296 76861
L83324 76833
L83381 76805
L83493 76805
L83549 76833
L83577 76861
L83606 76917
L83606 76946
L83577 77002
L83549 77030
L83493 77058
L83381 77058
L83324 77086
L83296 77114
L83268 77171
L83268 77283
L83296 77339
L83324 77367
L83381 77395
L83493 77395
L83549 77367
L83577 77339
L83606 77283
L83606 77171
L83577 77114
L83549 77086
L83493 77058
" />
<path d="M83859 77171
L84309 77171
" />
<path d="M84562 76861
L84590 76833
L84646 76805
L84787 76805
L84843 76833
L84871 76861
L84899 76917
L84899 76974
L84871 77058
L84534 77395
L84899 77395
" />
<path d="M85462 77395
L85124 77395
" />
<path d="M85293 77395
L85293 76805
L85237 76889
L85180 76946
L85124 76974
" />
<path d="M86361 77086
L86446 77114
L86474 77142
L86502 77199
L86502 77283
L86474 77339
L86446 77367
L86390 77395
L86165 77395
L86165 76805
L86361 76805
L86418 76833
L86446 76861
L86474 76917
L86474 76974
L86446 77030
L86418 77058
L86361 77086
L86165 77086
" />
<path d="M86699 76805
L87093 76805
L86699 77395
L87093 77395
" />
<path d="M87655 77395
L87458 77114
" />
<path d="M87318 77395
L87318 76805
L87543 76805
L87599 76833
L87627 76861
L87655 76917
L87655 77002
L87627 77058
L87599 77086
L87543 77114
L87318 77114
" />
<path d="M88639 76805
L88358 76805
L88330 77086
L88358 77058
L88414 77030
L88555 77030
L88611 77058
L88639 77086
L88667 77142
L88667 77283
L88639 77339
L88611 77367
L88555 77395
L88414 77395
L88358 77367
L88330 77339
" />
<path d="M89033 76805
L89089 76805
L89145 76833
L89174 76861
L89202 76917
L89230 77030
L89230 77171
L89202 77283
L89174 77339
L89145 77367
L89089 77395
L89033 77395
L88977 77367
L88949 77339
L88921 77283
L88892 77171
L88892 77030
L88921 76917
L88949 76861
L88977 76833
L89033 76805
" />
<path d="M89567 77058
L89511 77030
L89483 77002
L89455 76946
L89455 76917
L89483 76861
L89511 76833
L89567 76805
L89680 76805
L89736 76833
L89764 76861
L89792 76917
L89792 76946
L89764 77002
L89736 77030
L89680 77058
L89567 77058
L89511 77086
L89483 77114
L89455 77171
L89455 77283
L89483 77339
L89511 77367
L89567 77395
L89680 77395
L89736 77367
L89764 77339
L89792 77283
L89792 77171
L89764 77114
L89736 77086
L89680 77058
" />
<path d="M89989 76805
L90383 76805
L90130 77395
" />
<path d="M90552 77620
L90580 77592
L90636 77508
L90664 77452
L90692 77367
L90720 77227
L90720 77114
L90692 76974
L90664 76889
L90636 76833
L90580 76749
L90552 76721
" />
<path d="M91001 77171
L91451 77171
" />
<path d="M91733 77002
L91733 77592
" />
<path d="M91733 77030
L91789 77002
L91901 77002
L91958 77030
L91986 77058
L92014 77114
L92014 77283
L91986 77339
L91958 77367
L91901 77395
L91789 77395
L91733 77367
" />
<path d="M92267 77395
L92267 77002
" />
<path d="M92267 77114
L92295 77058
L92323 77030
L92379 77002
L92436 77002
" />
<path d="M92717 77395
L92661 77367
L92633 77339
L92604 77283
L92604 77114
L92633 77058
L92661 77030
L92717 77002
L92801 77002
L92858 77030
L92886 77058
L92914 77114
L92914 77283
L92886 77339
L92858 77367
L92801 77395
L92717 77395
" />
<path d="M93420 77395
L93420 76805
" />
<path d="M93420 77367
L93364 77395
L93251 77395
L93195 77367
L93167 77339
L93139 77283
L93139 77114
L93167 77058
L93195 77030
L93251 77002
L93364 77002
L93420 77030
" />
<path d="M93954 77002
L93954 77395
" />
<path d="M93701 77002
L93701 77311
L93729 77367
L93786 77395
L93870 77395
L93926 77367
L93954 77339
" />
<path d="M94489 77367
L94432 77395
L94320 77395
L94264 77367
L94235 77339
L94207 77283
L94207 77114
L94235 77058
L94264 77030
L94320 77002
L94432 77002
L94489 77030
" />
<path d="M94657 77002
L94882 77002
" />
<path d="M94742 76805
L94742 77311
L94770 77367
L94826 77395
L94882 77395
" />
</g>
<g style="fill:#000000; fill-opacity:0.0; 
stroke:#000000; stroke-width:39.3701; stroke-opacity:1; 
stroke-linecap:round; stroke-linejoin:round;">
</g>
<g style="fill:#000000; fill-opacity:0.0; 
stroke:#000000; stroke-width:59.0551; stroke-opacity:1; 
stroke-linecap:round; stroke-linejoin:round;">
<path d="M69685 75396
L112205 75396
" />
</g>
<g style="fill:#000000; fill-opacity:0.0; 
stroke:#000000; stroke-width:39.3701; stroke-opacity:1; 
stroke-linecap:round; stroke-linejoin:round;">
</g>
<g style="fill:#000000; fill-opacity:0.0; 
stroke:#000000; stroke-width:118.11; stroke-opacity:1; 
stroke-linecap:round; stroke-linejoin:round;">
<path d="M104022 76293
L103825 76012
" />
<path d="M103684 76293
L103684 75703
L103909 75703
L103965 75731
L103994 75759
L104022 75815
L104022 75899
L103994 75956
L103965 75984
L103909 76012
L103684 76012
" />
<path d="M104500 76265
L104444 76293
L104331 76293
L104275 76265
L104247 76209
L104247 75984
L104275 75928
L104331 75899
L104444 75899
L104500 75928
L104528 75984
L104528 76040
L104247 76096
" />
<path d="M104725 75899
L104865 76293
L105006 75899
" />
<path d="M105231 76237
L105259 76265
L105231 76293
L105203 76265
L105231 76237
L105231 76293
" />
<path d="M105231 75928
L105259 75956
L105231 75984
L105203 75956
L105231 75928
L105231 75984
" />
</g>
<g style="fill:#000000; fill-opacity:0.0; 
stroke:#000000; stroke-width:39.3701; stroke-opacity:1; 
stroke-linecap:round; stroke-linejoin:round;">
</g>
<g style="fill:#000000; fill-opacity:0.0; 
stroke:#000000; stroke-width:59.0551; stroke-opacity:1; 
stroke-linecap:round; stroke-linejoin:round;">
<path d="M70192 76265
L70276 76293
L70417 76293
L70473 76265
L70501 76237
L70529 76181
L70529 76124
L70501 76068
L70473 76040
L70417 76012
L70304 75984
L70248 75956
L70220 75928
L70192 75871
L70192 75815
L70220 75759
L70248 75731
L70304 75703
L70445 75703
L70529 75731
" />
<path d="M70782 76293
L70782 75899
" />
<path d="M70782 75703
L70754 75731
L70782 75759
L70810 75731
L70782 75703
L70782 75759
" />
<path d="M71007 75899
L71316 75899
L71007 76293
L71316 76293
" />
<path d="M71766 76265
L71710 76293
L71598 76293
L71541 76265
L71513 76209
L71513 75984
L71541 75928
L71598 75899
L71710 75899
L71766 75928
L71795 75984
L71795 76040
L71513 76096
" />
<path d="M72048 76237
L72076 76265
L72048 76293
L72019 76265
L72048 76237
L72048 76293
" />
<path d="M72048 75928
L72076 75956
L72048 75984
L72019 75956
L72048 75928
L72048 75984
" />
<path d="M72751 76124
L73032 76124
" />
<path d="M72694 76293
L72891 75703
L73088 76293
" />
<path d="M73538 75899
L73538 76293
" />
<path d="M73397 75674
L73257 76096
L73622 76096
" />
</g>
<g style="fill:#000000; fill-opacity:0.0; 
stroke:#000000; stroke-width:39.3701; stroke-opacity:1; 
stroke-linecap:round; stroke-linejoin:round;">
</g>
<g style="fill:#000000; fill-opacity:0.0; 
stroke:#000000; stroke-width:59.0551; stroke-opacity:1; 
stroke-linecap:round; stroke-linejoin:round;">
<path d="M103684 77395
L103684 76805
" />
<path d="M104219 77395
L104219 76805
" />
<path d="M104219 77367
L104162 77395
L104050 77395
L103994 77367
L103965 77339
L103937 77283
L103937 77114
L103965 77058
L103994 77030
L104050 77002
L104162 77002
L104219 77030
" />
<path d="M104500 77339
L104528 77367
L104500 77395
L104472 77367
L104500 77339
L104500 77395
" />
<path d="M104500 77030
L104528 77058
L104500 77086
L104472 77058
L104500 77030
L104500 77086
" />
<path d="M105540 77395
L105203 77395
" />
<path d="M105372 77395
L105372 76805
L105315 76889
L105259 76946
L105203 76974
" />
<path d="M106215 76777
L105709 77536
" />
<path d="M106721 77395
L106384 77395
" />
<path d="M106553 77395
L106553 76805
L106496 76889
L106440 76946
L106384 76974
" />
</g>
<g style="fill:#000000; fill-opacity:0.0; 
stroke:#000000; stroke-width:39.3701; stroke-opacity:1; 
stroke-linecap:round; stroke-linejoin:round;">
</g>
<g style="fill:#000000; fill-opacity:0.0; 
stroke:#000000; stroke-width:59.0551; stroke-opacity:1; 
stroke-linecap:round; stroke-linejoin:round;">
<path d="M69685 73821
L112205 73821
" />
</g>
<g style="fill:#000000; fill-opacity:0.0; 
stroke:#000000; stroke-width:39.3701; stroke-opacity:1; 
stroke-linecap:round; stroke-linejoin:round;">
</g>
<g style="fill:#000000; fill-opacity:0.0; 
stroke:#000000; stroke-width:157.48; stroke-opacity:1; 
stroke-linecap:round; stroke-linejoin:round;">
<path d="M70257 74099
L70707 74099
" />
<path d="M70384 74886
L70482 74099
" />
<path d="M70871 74886
L70937 74361
" />
<path d="M70970 74099
L70927 74136
L70960 74174
L71002 74136
L70970 74099
L70960 74174
" />
<path d="M71199 74361
L71499 74361
" />
<path d="M71345 74099
L71260 74774
L71288 74849
L71359 74886
L71434 74886
" />
<path d="M71809 74886
L71738 74849
L71710 74774
L71795 74099
" />
<path d="M72413 74849
L72334 74886
L72184 74886
L72113 74849
L72085 74774
L72123 74474
L72169 74399
L72249 74361
L72399 74361
L72469 74399
L72498 74474
L72488 74549
L72104 74624
" />
<path d="M72793 74811
L72826 74849
L72783 74886
L72751 74849
L72793 74811
L72783 74886
" />
<path d="M72844 74399
L72877 74436
L72835 74474
L72802 74436
L72844 74399
L72835 74474
" />
</g>
<g style="fill:#000000; fill-opacity:0.0; 
stroke:#000000; stroke-width:39.3701; stroke-opacity:1; 
stroke-linecap:round; stroke-linejoin:round;">
</g>
<g style="fill:#000000; fill-opacity:0.0; 
stroke:#000000; stroke-width:59.0551; stroke-opacity:1; 
stroke-linecap:round; stroke-linejoin:round;">
<path d="M70417 73070
L70220 73070
" />
<path d="M70220 73380
L70220 72789
L70501 72789
" />
<path d="M70726 73380
L70726 72986
" />
<path d="M70726 72789
L70698 72817
L70726 72845
L70754 72817
L70726 72789
L70726 72845
" />
<path d="M71091 73380
L71035 73352
L71007 73295
L71007 72789
" />
<path d="M71541 73352
L71485 73380
L71373 73380
L71316 73352
L71288 73295
L71288 73070
L71316 73014
L71373 72986
L71485 72986
L71541 73014
L71570 73070
L71570 73127
L71288 73183
" />
<path d="M71823 73323
L71851 73352
L71823 73380
L71795 73352
L71823 73323
L71823 73380
" />
<path d="M71823 73014
L71851 73042
L71823 73070
L71795 73042
L71823 73014
L71823 73070
" />
<path d="M72554 73380
L72554 72789
" />
<path d="M72554 73014
L72610 72986
L72723 72986
L72779 73014
L72807 73042
L72835 73099
L72835 73267
L72807 73323
L72779 73352
L72723 73380
L72610 73380
L72554 73352
" />
<path d="M73172 73380
L73116 73352
L73088 73323
L73060 73267
L73060 73099
L73088 73042
L73116 73014
L73172 72986
L73257 72986
L73313 73014
L73341 73042
L73369 73099
L73369 73267
L73341 73323
L73313 73352
L73257 73380
L73172 73380
" />
<path d="M73876 73380
L73876 73070
L73847 73014
L73791 72986
L73679 72986
L73622 73014
" />
<path d="M73876 73352
L73819 73380
L73679 73380
L73622 73352
L73594 73295
L73594 73239
L73622 73183
L73679 73155
L73819 73155
L73876 73127
" />
<path d="M74157 73380
L74157 72986
" />
<path d="M74157 73099
L74185 73042
L74213 73014
L74269 72986
L74325 72986
" />
<path d="M74775 73380
L74775 72789
" />
<path d="M74775 73352
L74719 73380
L74607 73380
L74550 73352
L74522 73323
L74494 73267
L74494 73099
L74522 73042
L74550 73014
L74607 72986
L74719 72986
L74775 73014
" />
<path d="M75057 73323
L75085 73352
L75057 73380
L75028 73352
L75057 73323
L75057 73380
" />
<path d="M75338 73380
L75338 72789
" />
<path d="M75394 73155
L75563 73380
" />
<path d="M75563 72986
L75338 73211
" />
<path d="M75816 73380
L75816 72986
" />
<path d="M75816 72789
L75788 72817
L75816 72845
L75844 72817
L75816 72789
L75816 72845
" />
<path d="M76350 73352
L76294 73380
L76181 73380
L76125 73352
L76097 73323
L76069 73267
L76069 73099
L76097 73042
L76125 73014
L76181 72986
L76294 72986
L76350 73014
" />
<path d="M76856 73380
L76856 73070
L76828 73014
L76772 72986
L76660 72986
L76603 73014
" />
<path d="M76856 73352
L76800 73380
L76660 73380
L76603 73352
L76575 73295
L76575 73239
L76603 73183
L76660 73155
L76800 73155
L76856 73127
" />
<path d="M77391 73380
L77391 72789
" />
<path d="M77391 73352
L77334 73380
L77222 73380
L77166 73352
L77138 73323
L77109 73267
L77109 73099
L77138 73042
L77166 73014
L77222 72986
L77334 72986
L77391 73014
" />
<path d="M77531 73436
L77981 73436
" />
<path d="M78122 72986
L78122 73577
" />
<path d="M78122 73014
L78178 72986
L78291 72986
L78347 73014
L78375 73042
L78403 73099
L78403 73267
L78375 73323
L78347 73352
L78291 73380
L78178 73380
L78122 73352
" />
<path d="M78909 73352
L78853 73380
L78741 73380
L78684 73352
L78656 73323
L78628 73267
L78628 73099
L78656 73042
L78684 73014
L78741 72986
L78853 72986
L78909 73014
" />
<path d="M79162 73380
L79162 72789
" />
<path d="M79162 73014
L79219 72986
L79331 72986
L79387 73014
L79415 73042
L79444 73099
L79444 73267
L79415 73323
L79387 73352
L79331 73380
L79219 73380
L79162 73352
" />
</g>
<g style="fill:#000000; fill-opacity:0.0; 
stroke:#000000; stroke-width:39.3701; stroke-opacity:1; 
stroke-linecap:round; stroke-linejoin:round;">
</g>
<g style="fill:#000000; fill-opacity:0.0; 
stroke:#000000; stroke-width:59.0551; stroke-opacity:1; 
stroke-linecap:round; stroke-linejoin:round;">
<path d="M69685 71459
L112205 71459
" />
</g>
<g style="fill:#000000; fill-opacity:0.0; 
stroke:#000000; stroke-width:39.3701; stroke-opacity:1; 
stroke-linecap:round; stroke-linejoin:round;">
</g>
<g style="fill:#000000; fill-opacity:0.0; 
stroke:#000000; stroke-width:59.0551; stroke-opacity:1; 
stroke-linecap:round; stroke-linejoin:round;">
<path d="M70192 72289
L70276 72317
L70417 72317
L70473 72289
L70501 72260
L70529 72204
L70529 72148
L70501 72092
L70473 72064
L70417 72036
L70304 72007
L70248 71979
L70220 71951
L70192 71895
L70192 71839
L70220 71782
L70248 71754
L70304 71726
L70445 71726
L70529 71754
" />
<path d="M70782 72317
L70782 71726
" />
<path d="M71035 72317
L71035 72007
L71007 71951
L70951 71923
L70867 71923
L70810 71951
L70782 71979
" />
<path d="M71541 72289
L71485 72317
L71373 72317
L71316 72289
L71288 72232
L71288 72007
L71316 71951
L71373 71923
L71485 71923
L71541 71951
L71570 72007
L71570 72064
L71288 72120
" />
<path d="M72048 72289
L71991 72317
L71879 72317
L71823 72289
L71795 72232
L71795 72007
L71823 71951
L71879 71923
L71991 71923
L72048 71951
L72076 72007
L72076 72064
L71795 72120
" />
<path d="M72244 71923
L72469 71923
" />
<path d="M72329 71726
L72329 72232
L72357 72289
L72413 72317
L72469 72317
" />
<path d="M72666 72260
L72694 72289
L72666 72317
L72638 72289
L72666 72260
L72666 72317
" />
<path d="M72666 71951
L72694 71979
L72666 72007
L72638 71979
L72666 71951
L72666 72007
" />
</g>
<g style="fill:#000000; fill-opacity:0.0; 
stroke:#000000; stroke-width:39.3701; stroke-opacity:1; 
stroke-linecap:round; stroke-linejoin:round;">
</g>
<g style="fill:#000000; fill-opacity:0.0; 
stroke:#000000; stroke-width:59.0551; stroke-opacity:1; 
stroke-linecap:round; stroke-linejoin:round;">
<path d="M77559 75396
L77559 76577
" />
</g>
<g style="fill:#000000; fill-opacity:0.0; 
stroke:#000000; stroke-width:39.3701; stroke-opacity:1; 
stroke-linecap:round; stroke-linejoin:round;">
</g>
<g style="fill:#000000; fill-opacity:0.0; 
stroke:#000000; stroke-width:59.0551; stroke-opacity:1; 
stroke-linecap:round; stroke-linejoin:round;">
<path d="M102756 75396
L102756 77955
" />
</g>
<g style="fill:#008484; fill-opacity:0.0; 
stroke:#008484; stroke-width:118.11; stroke-opacity:1; 
stroke-linecap:round; stroke-linejoin:round;">
<path d="M50899 44755
L50899 44164
" />
<path d="M50899 44446
L51237 44446
" />
<path d="M51237 44755
L51237 44164
" />
<path d="M51771 44755
L51771 44446
L51743 44389
L51687 44361
L51574 44361
L51518 44389
" />
<path d="M51771 44727
L51715 44755
L51574 44755
L51518 44727
L51490 44670
L51490 44614
L51518 44558
L51574 44530
L51715 44530
L51771 44502
" />
<path d="M52305 44727
L52249 44755
L52137 44755
L52080 44727
L52052 44699
L52024 44642
L52024 44474
L52052 44417
L52080 44389
L52137 44361
L52249 44361
L52305 44389
" />
<path d="M52559 44755
L52559 44164
" />
<path d="M52615 44530
L52784 44755
" />
<path d="M52784 44361
L52559 44586
" />
<path d="M53008 44586
L53290 44586
" />
<path d="M52952 44755
L53149 44164
L53346 44755
" />
<path d="M53487 44361
L53627 44755
L53768 44361
" />
<path d="M54218 44727
L54161 44755
L54049 44755
L53993 44727
L53965 44670
L53965 44446
L53993 44389
L54049 44361
L54161 44361
L54218 44389
L54246 44446
L54246 44502
L53965 44558
" />
<path d="M54499 44755
L54499 44361
" />
<path d="M54499 44164
L54471 44192
L54499 44221
L54527 44192
L54499 44164
L54499 44221
" />
<path d="M54780 44755
L54780 44361
" />
<path d="M54780 44474
L54808 44417
L54836 44389
L54893 44361
L54949 44361
" />
<path d="M55230 44755
L55174 44727
L55146 44699
L55118 44642
L55118 44474
L55146 44417
L55174 44389
L55230 44361
L55314 44361
L55371 44389
L55399 44417
L55427 44474
L55427 44642
L55399 44699
L55371 44727
L55314 44755
L55230 44755
" />
</g>
<g style="fill:#C2C200; fill-opacity:0.0; 
stroke:#C2C200; stroke-width:59.0551; stroke-opacity:1; 
stroke-linecap:round; stroke-linejoin:round;">
<path d="M50393 45275
L50393 36614
" />
<path d="M50787 45275
L50393 45275
" />
<path d="M67322 45275
L50787 45275
" />
<path d="M67322 36614
L50393 36614
" />
<path d="M67322 45275
L67322 36614
" />
<path d="M61914 37185
L61914 36792
L62064 36792
L62101 36811
L62120 36829
L62139 36867
L62139 36923
L62120 36961
L62101 36979
L62064 36998
L61914 36998
" />
<path d="M62514 37185
L62289 37185
" />
<path d="M62401 37185
L62401 36792
L62364 36848
L62326 36886
L62289 36904
" />
<path d="M54040 37579
L54040 37185
L54190 37185
L54227 37204
L54246 37223
L54265 37260
L54265 37317
L54246 37354
L54227 37373
L54190 37392
L54040 37392
" />
<path d="M54415 37223
L54433 37204
L54471 37185
L54565 37185
L54602 37204
L54621 37223
L54640 37260
L54640 37298
L54621 37354
L54396 37579
L54640 37579
" />
<path d="M56678 42165
L56490 42296
" />
<path d="M56678 42390
L56284 42390
L56284 42240
L56303 42203
L56321 42184
L56359 42165
L56415 42165
L56453 42184
L56471 42203
L56490 42240
L56490 42390
" />
<path d="M56678 41790
L56678 42015
" />
<path d="M56678 41903
L56284 41903
L56340 41940
L56378 41978
L56396 42015
" />
</g>
<g style="fill:#008484; fill-opacity:0.0; 
stroke:#008484; stroke-width:120; stroke-opacity:1; 
stroke-linecap:round; stroke-linejoin:round;">
<path d="M56042 41171
L56042 41657
L56071 41714
L56100 41742
L56157 41771
L56271 41771
L56328 41742
L56357 41714
L56385 41657
L56385 41171
" />
<path d="M56985 41771
L56642 41771
" />
<path d="M56814 41771
L56814 41171
L56757 41257
L56700 41314
L56642 41342
" />
<path d="M55014 36671
L55157 37271
L55271 36842
L55385 37271
L55528 36671
" />
<path d="M55728 37242
L55814 37271
L55957 37271
L56014 37242
L56042 37214
L56071 37157
L56071 37100
L56042 37042
L56014 37014
L55957 36985
L55842 36957
L55785 36928
L55757 36900
L55728 36842
L55728 36785
L55757 36728
L55785 36700
L55842 36671
L55985 36671
L56071 36700
" />
<path d="M56300 36728
L56328 36700
L56385 36671
L56528 36671
L56585 36700
L56614 36728
L56642 36785
L56642 36842
L56614 36928
L56271 37271
L56642 37271
" />
<path d="M56985 36928
L56928 36900
L56900 36871
L56871 36814
L56871 36785
L56900 36728
L56928 36700
L56985 36671
L57100 36671
L57157 36700
L57185 36728
L57214 36785
L57214 36814
L57185 36871
L57157 36900
L57100 36928
L56985 36928
L56928 36957
L56900 36985
L56871 37042
L56871 37157
L56900 37214
L56928 37242
L56985 37271
L57100 37271
L57157 37242
L57185 37214
L57214 37157
L57214 37042
L57185 36985
L57157 36957
L57100 36928
" />
<path d="M57785 37271
L57442 37271
" />
<path d="M57614 37271
L57614 36671
L57557 36757
L57500 36814
L57442 36842
" />
<path d="M58014 36728
L58042 36700
L58100 36671
L58242 36671
L58300 36700
L58328 36728
L58357 36785
L58357 36842
L58328 36928
L57985 37271
L58357 37271
" />
<path d="M58814 36957
L58900 36985
L58928 37014
L58957 37071
L58957 37157
L58928 37214
L58900 37242
L58842 37271
L58614 37271
L58614 36671
L58814 36671
L58871 36700
L58900 36728
L58928 36785
L58928 36842
L58900 36900
L58871 36928
L58814 36957
L58614 36957
" />
</g>
<g style="fill:#C2C200; fill-opacity:0.0; 
stroke:#C2C200; stroke-width:59.0551; stroke-opacity:1; 
stroke-linecap:round; stroke-linejoin:round;">
<path d="M61934 43467
L61915 43486
L61859 43504
L61821 43504
L61765 43486
L61728 43448
L61709 43411
L61690 43336
L61690 43279
L61709 43204
L61728 43167
L61765 43129
L61821 43111
L61859 43111
L61915 43129
L61934 43148
" />
<path d="M62309 43504
L62084 43504
" />
<path d="M62196 43504
L62196 43111
L62159 43167
L62121 43204
L62084 43223
" />
<path d="M61934 44467
L61915 44486
L61859 44504
L61821 44504
L61765 44486
L61728 44448
L61709 44411
L61690 44336
L61690 44279
L61709 44204
L61728 44167
L61765 44129
L61821 44111
L61859 44111
L61915 44129
L61934 44148
" />
<path d="M62084 44148
L62103 44129
L62140 44111
L62234 44111
L62271 44129
L62290 44148
L62309 44186
L62309 44223
L62290 44279
L62065 44504
L62309 44504
" />
<path d="M65934 39467
L65915 39486
L65859 39504
L65821 39504
L65765 39486
L65728 39448
L65709 39411
L65690 39336
L65690 39279
L65709 39204
L65728 39167
L65765 39129
L65821 39111
L65859 39111
L65915 39129
L65934 39148
" />
<path d="M66065 39111
L66309 39111
L66178 39261
L66234 39261
L66271 39279
L66290 39298
L66309 39336
L66309 39429
L66290 39467
L66271 39486
L66234 39504
L66121 39504
L66084 39486
L66065 39467
" />
<path d="M65934 40467
L65915 40486
L65859 40504
L65821 40504
L65765 40486
L65728 40448
L65709 40411
L65690 40336
L65690 40279
L65709 40204
L65728 40167
L65765 40129
L65821 40111
L65859 40111
L65915 40129
L65934 40148
" />
<path d="M66271 40242
L66271 40504
" />
<path d="M66178 40092
L66084 40373
L66328 40373
" />
<path d="M65934 41467
L65915 41486
L65859 41504
L65821 41504
L65765 41486
L65728 41448
L65709 41411
L65690 41336
L65690 41279
L65709 41204
L65728 41167
L65765 41129
L65821 41111
L65859 41111
L65915 41129
L65934 41148
" />
<path d="M66290 41111
L66103 41111
L66084 41298
L66103 41279
L66140 41261
L66234 41261
L66271 41279
L66290 41298
L66309 41336
L66309 41429
L66290 41467
L66271 41486
L66234 41504
L66140 41504
L66103 41486
L66084 41467
" />
<path d="M65934 42467
L65915 42486
L65859 42504
L65821 42504
L65765 42486
L65728 42448
L65709 42411
L65690 42336
L65690 42279
L65709 42204
L65728 42167
L65765 42129
L65821 42111
L65859 42111
L65915 42129
L65934 42148
" />
<path d="M66271 42111
L66196 42111
L66159 42129
L66140 42148
L66103 42204
L66084 42279
L66084 42429
L66103 42467
L66121 42486
L66159 42504
L66234 42504
L66271 42486
L66290 42467
L66309 42429
L66309 42336
L66290 42298
L66271 42279
L66234 42261
L66159 42261
L66121 42279
L66103 42298
L66084 42336
" />
<path d="M65934 43467
L65915 43486
L65859 43504
L65821 43504
L65765 43486
L65728 43448
L65709 43411
L65690 43336
L65690 43279
L65709 43204
L65728 43167
L65765 43129
L65821 43111
L65859 43111
L65915 43129
L65934 43148
" />
<path d="M66065 43111
L66328 43111
L66159 43504
" />
<path d="M65934 44467
L65915 44486
L65859 44504
L65821 44504
L65765 44486
L65728 44448
L65709 44411
L65690 44336
L65690 44279
L65709 44204
L65728 44167
L65765 44129
L65821 44111
L65859 44111
L65915 44129
L65934 44148
" />
<path d="M66159 44279
L66121 44261
L66103 44242
L66084 44204
L66084 44186
L66103 44148
L66121 44129
L66159 44111
L66234 44111
L66271 44129
L66290 44148
L66309 44186
L66309 44204
L66290 44242
L66271 44261
L66234 44279
L66159 44279
L66121 44298
L66103 44317
L66084 44354
L66084 44429
L66103 44467
L66121 44486
L66159 44504
L66234 44504
L66271 44486
L66290 44467
L66309 44429
L66309 44354
L66290 44317
L66271 44298
L66234 44279
" />
<path d="M54253 41503
L54253 41240
" />
<path d="M54253 41278
L54271 41259
L54309 41240
L54365 41240
L54403 41259
L54421 41296
L54421 41503
" />
<path d="M54421 41296
L54440 41259
L54478 41240
L54534 41240
L54571 41259
L54590 41296
L54590 41503
" />
<path d="M54778 41240
L54778 41503
" />
<path d="M54778 41278
L54796 41259
L54834 41240
L54890 41240
L54928 41259
L54946 41296
L54946 41503
" />
<path d="M55078 41240
L55228 41240
" />
<path d="M55134 41109
L55134 41446
L55153 41484
L55190 41503
L55228 41503
" />
<path d="M55565 41503
L55340 41503
" />
<path d="M55453 41503
L55453 41109
L55415 41165
L55378 41203
L55340 41221
" />
<path d="M59153 41553
L59153 41290
" />
<path d="M59153 41328
L59171 41309
L59209 41290
L59265 41290
L59303 41309
L59321 41346
L59321 41553
" />
<path d="M59321 41346
L59340 41309
L59378 41290
L59434 41290
L59471 41309
L59490 41346
L59490 41553
" />
<path d="M59678 41290
L59678 41553
" />
<path d="M59678 41328
L59696 41309
L59734 41290
L59790 41290
L59828 41309
L59846 41346
L59846 41553
" />
<path d="M59978 41290
L60128 41290
" />
<path d="M60034 41159
L60034 41496
L60053 41534
L60090 41553
L60128 41553
" />
<path d="M60240 41196
L60259 41178
L60296 41159
L60390 41159
L60428 41178
L60446 41196
L60465 41234
L60465 41271
L60446 41328
L60221 41553
L60465 41553
" />
</g>
<g style="fill:#008484; fill-opacity:0.0; 
stroke:#008484; stroke-width:59.0551; stroke-opacity:1; 
stroke-linecap:round; stroke-linejoin:round;">
<path d="M65000 44000
L65000 38000
" />
<path d="M63000 39000
L63000 44000
" />
<path d="M65000 44000
L63000 44000
" />
<path d="M65000 38000
L64000 38000
" />
<path d="M63500 37889
L62889 37889
" />
<path d="M64000 38000
L64000 39000
" />
<path d="M64000 39000
L63000 39000
" />
<path d="M62889 37889
L62889 38500
" />
<path d="M53500 44000
L53500 38000
" />
<path d="M51500 39000
L51500 44000
" />
<path d="M53500 44000
L51500 44000
" />
<path d="M53500 38000
L52500 38000
" />
<path d="M52000 37889
L51389 37889
" />
<path d="M52500 38000
L52500 39000
" />
<path d="M52500 39000
L51500 39000
" />
<path d="M51389 37889
L51389 38500
" />
<path d="M57500 42000
L57500 43000
" />
<circle cx="57500" cy="42000" r="559.017" /> 
</g>
<g style="fill:#008484; fill-opacity:0.0; 
stroke:#008484; stroke-width:150; stroke-opacity:1; 
stroke-linecap:round; stroke-linejoin:round;">
<path d="M61000 37000
L61000 37500
" />
<path d="M61000 37500
L61500 37500
" />
<path d="M61500 37500
L61500 37000
" />
<path d="M61500 37000
L61000 37500
" />
<path d="M61000 37500
L61000 37000
" />
<path d="M61500 37000
L61500 37500
" />
<path d="M61000 37000
L61500 37000
" />
<path d="M61000 37500
L61500 37500
" />
<path d="M60500 38000 A2121.32 2121.32 0.0 0 0 57500 38000 " />
<path d="M57500 41000 A2121.32 2121.32 0.0 0 0 60500 41000 " />
</g>
<g style="fill:#008484; fill-opacity:0.0; 
stroke:#008484; stroke-width:59.0551; stroke-opacity:1; 
stroke-linecap:round; stroke-linejoin:round;">
<path d="M61763 42155
L62236 42155
" />
<path d="M62236 42844
L61763 42844
" />
<path d="M61763 43155
L62236 43155
" />
<path d="M62236 43844
L61763 43844
" />
<path d="M65763 38155
L66236 38155
" />
<path d="M66236 38844
L65763 38844
" />
<path d="M65763 39155
L66236 39155
" />
<path d="M66236 39844
L65763 39844
" />
<path d="M65763 40155
L66236 40155
" />
<path d="M66236 40844
L65763 40844
" />
<path d="M65763 41155
L66236 41155
" />
<path d="M66236 41844
L65763 41844
" />
<path d="M65763 42155
L66236 42155
" />
<path d="M66236 42844
L65763 42844
" />
<path d="M65763 43155
L66236 43155
" />
<path d="M66236 43844
L65763 43844
" />
</g>
<g style="fill:#840000; fill-opacity:0.0; 
stroke:#840000; stroke-width:39.3701; stroke-opacity:1; 
stroke-linecap:round; stroke-linejoin:round;">
</g>
<g style="fill:#840000; fill-opacity:1.0; 
stroke:#840000; stroke-width:39.3701; stroke-opacity:1; 
stroke-linecap:round; stroke-linejoin:round;">
<polyline style="fill-rule:evenodd;"
points="63179,38820
63179,38179
63820,38179
63820,38820
63179,38820
" /> 
</g>
<g style="fill:#840000; fill-opacity:1.0; 
stroke:#840000; stroke-width:680; stroke-opacity:1; 
stroke-linecap:round; stroke-linejoin:round;">
</g>
<g style="fill:#840000; fill-opacity:0.0; 
stroke:#840000; stroke-width:680; stroke-opacity:1; 
stroke-linecap:round; stroke-linejoin:round;">
<path d="M64500 38500
L64500 38500
" />
<path d="M63500 39500
L63500 39500
" />
<path d="M64500 39500
L64500 39500
" />
<path d="M63500 40500
L63500 40500
" />
<path d="M64500 40500
L64500 40500
" />
<path d="M63500 41500
L63500 41500
" />
<path d="M64500 41500
L64500 41500
" />
<path d="M63500 42500
L63500 42500
" />
<path d="M64500 42500
L64500 42500
" />
<path d="M63500 43500
L63500 43500
" />
<path d="M64500 43500
L64500 43500
" />
</g>
<g style="fill:#840000; fill-opacity:0.0; 
stroke:#840000; stroke-width:39.3701; stroke-opacity:1; 
stroke-linecap:round; stroke-linejoin:round;">
</g>
<g style="fill:#840000; fill-opacity:1.0; 
stroke:#840000; stroke-width:39.3701; stroke-opacity:1; 
stroke-linecap:round; stroke-linejoin:round;">
<polyline style="fill-rule:evenodd;"
points="51679,38820
51679,38179
52320,38179
52320,38820
51679,38820
" /> 
</g>
<g style="fill:#840000; fill-opacity:1.0; 
stroke:#840000; stroke-width:680; stroke-opacity:1; 
stroke-linecap:round; stroke-linejoin:round;">
</g>
<g style="fill:#840000; fill-opacity:0.0; 
stroke:#840000; stroke-width:680; stroke-opacity:1; 
stroke-linecap:round; stroke-linejoin:round;">
<path d="M53000 38500
L53000 38500
" />
<path d="M52000 39500
L52000 39500
" />
<path d="M53000 39500
L53000 39500
" />
<path d="M52000 40500
L52000 40500
" />
<path d="M53000 40500
L53000 40500
" />
<path d="M52000 41500
L52000 41500
" />
<path d="M53000 41500
L53000 41500
" />
<path d="M52000 42500
L52000 42500
" />
<path d="M53000 42500
L53000 42500
" />
<path d="M52000 43500
L52000 43500
" />
<path d="M53000 43500
L53000 43500
" />
</g>
<g style="fill:#840000; fill-opacity:0.0; 
stroke:#840000; stroke-width:39.3701; stroke-opacity:1; 
stroke-linecap:round; stroke-linejoin:round;">
</g>
<g style="fill:#840000; fill-opacity:1.0; 
stroke:#840000; stroke-width:39.3701; stroke-opacity:1; 
stroke-linecap:round; stroke-linejoin:round;">
<circle cx="57500" cy="42000" r="295.276" /> 
<circle cx="57500" cy="43000" r="295.276" /> 
<circle cx="54900" cy="42900" r="610.236" /> 
</g> 
</svg>
